<svg width="23" height="23" viewBox="0 0 23 23" fill="none" xmlns="http://www.w3.org/2000/svg">
<path d="M1.30491 9.94703L0.00641251 9.94556L0.00741196 18.7648L0.00755501 21.5325C0.00741196 21.9697 -0.013443 22.5857 0.0148411 23.0001L21.5678 22.9998L21.5659 14.0759C21.5756 13.2475 21.5516 12.4177 21.5687 11.5895C21.5701 11.5223 21.5865 11.4687 21.5309 11.4224C21.23 11.419 20.912 11.5285 20.5989 11.4543C20.5183 11.4352 20.3457 11.4078 20.2656 11.4152C20.2283 11.5076 20.2473 13.9695 20.2473 14.2149L20.2454 21.565L1.32933 21.5706L1.32633 11.4626C1.32491 11.2726 1.34291 10.0335 1.30491 9.94703Z" fill="#0089F1"/>
<path d="M6.06876 12.4214C5.23024 12.4386 4.52556 12.7537 4.27529 13.6115C4.1833 13.9268 4.19658 14.1932 4.20144 14.5159C4.00145 14.721 3.95974 14.9487 3.99817 15.2227C4.04073 15.5258 4.16373 15.6678 4.40114 15.8452C4.54271 16.3085 4.64298 16.4398 4.93568 16.8213C4.91468 16.9967 4.89454 17.2064 4.78126 17.3517C4.68027 17.4813 3.43763 17.924 3.17693 18.0595C3.04194 18.1281 2.9178 18.2159 2.80809 18.3204C2.41469 18.7002 2.42112 19.0899 2.41069 19.604C2.40712 19.7781 2.40255 20.032 2.65725 20.0328C2.99665 20.034 3.33692 20.0307 3.67676 20.0307L6.02347 20.0308L8.43476 20.0307C8.64503 20.0293 8.8553 20.0291 9.06572 20.0303C9.5714 20.0358 9.75939 20.1213 9.73025 19.5219C9.72568 19.4274 9.72497 19.3052 9.72354 19.2086C9.71725 18.7613 9.45841 18.3522 9.08015 18.1229C8.91801 18.0252 8.73688 17.9547 8.56375 17.8825C8.32405 17.7825 8.08321 17.6851 7.84151 17.5903C7.41539 17.4214 7.19097 17.3693 7.19769 16.831C7.24354 16.7602 7.33297 16.6529 7.38653 16.5795C7.56167 16.3396 7.65495 16.1292 7.72509 15.8432C8.02435 15.6479 8.12792 15.4342 8.14249 15.0761C8.15206 14.8411 8.08364 14.686 7.92407 14.5173C7.93636 13.9428 7.91936 13.4339 7.50696 12.9781C7.11641 12.5466 6.62858 12.443 6.06876 12.4214Z" fill="#0089F1"/>
<path d="M5.36445 17.161C5.16989 17.7751 5.01004 17.7902 4.4325 18.0352C4.0461 18.1991 3.43999 18.3806 3.12387 18.6599C2.86174 18.8914 2.88374 19.2487 2.88217 19.572C3.63884 19.561 4.42022 19.571 5.17889 19.5711L9.26636 19.5708C9.2615 19.3984 9.28007 19.1886 9.23722 19.0243C9.13479 18.631 8.82038 18.4902 8.48483 18.3495C8.22199 18.2412 7.95829 18.1351 7.69374 18.0309C7.18134 17.8245 6.91378 17.7404 6.77236 17.1604C6.27268 17.4065 5.86628 17.4162 5.36445 17.161Z" fill="#F5F5F5"/>
<path d="M6.27895 12.8944C5.88954 12.83 5.35886 12.9418 5.07388 13.1842C4.59534 13.5913 4.64904 14.1547 4.66747 14.7148C4.66933 14.7702 4.41792 14.9152 4.4342 15.0697C4.44963 15.2158 4.47263 15.3024 4.57505 15.4155C4.61362 15.4296 4.73904 15.4731 4.75847 15.5016C4.83061 15.6085 4.85518 15.7875 4.90189 15.9099C4.93703 15.9995 4.97903 16.0863 5.02745 16.1694C5.22415 16.5063 5.48728 16.7668 5.86954 16.8686L5.88183 16.8707C6.45479 16.9674 6.92362 16.5586 7.15732 16.0626C7.20204 15.994 7.31703 15.5458 7.36431 15.5133C7.58916 15.3589 7.65044 15.3932 7.68686 15.0595C7.744 14.8738 7.44916 14.818 7.45259 14.7068C7.46745 14.2267 7.51987 13.7326 7.19575 13.3269C6.97991 13.0569 6.64407 12.9308 6.27895 12.8944Z" fill="#F5F5F5"/>
<path d="M15.6784 12.4358C15.6101 12.4215 15.3738 12.4246 15.3018 12.4275C14.8193 12.4467 14.3161 12.6196 13.9895 12.9904C13.6196 13.4105 13.5591 13.9719 13.5917 14.5092C13.3229 14.7839 13.3259 15.2057 13.4906 15.5346C13.5598 15.6727 13.6694 15.7571 13.7884 15.8488C13.8986 16.2741 14.0566 16.4919 14.3265 16.8236C14.3125 16.9848 14.2908 17.1926 14.1853 17.3213C13.9704 17.5836 12.6709 17.8818 12.2297 18.2764C11.9496 18.5269 11.8177 18.8379 11.7977 19.2098C11.7899 19.3553 11.7543 19.8632 11.8505 19.96C11.8943 20.0041 11.9577 20.0224 12.0179 20.0297C12.1181 20.0417 12.2239 20.0306 12.3249 20.0304L12.975 20.0303L15.164 20.0307L18.0593 20.0296C18.2643 20.0276 18.9754 20.0956 19.0576 19.9273C19.1299 19.7794 19.1052 19.1536 19.0723 18.9838C18.9622 18.4171 18.4879 18.071 17.9686 17.901C17.5795 17.7429 17.1853 17.5767 16.8043 17.4079C16.6377 17.334 16.6009 16.999 16.578 16.8356C16.8751 16.4004 16.9505 16.3919 17.1065 15.8465C17.3909 15.6581 17.5028 15.451 17.5248 15.1083C17.5406 14.863 17.4759 14.7007 17.3136 14.5189C17.382 13.3628 16.8959 12.5447 15.6784 12.4358Z" fill="#0089F1"/>
<path d="M16.1584 17.1607C15.6384 17.406 15.2629 17.416 14.7421 17.1587C14.565 17.7874 14.3289 17.8289 13.766 18.0512C13.5178 18.1479 13.2711 18.2483 13.026 18.3525C12.8272 18.437 12.6409 18.5099 12.4884 18.666C12.2159 18.945 12.2555 19.215 12.2584 19.5718C13.0178 19.5614 13.7993 19.5708 14.5604 19.5708L18.6427 19.5713C18.6193 19.4003 18.6444 19.2167 18.6123 19.0537C18.5146 18.5649 18.0923 18.4729 17.7216 18.2918C17.1041 17.9901 16.3041 17.9454 16.1584 17.1607Z" fill="#F5F5F5"/>
<path d="M15.476 12.879C15.1709 12.876 14.7878 12.9481 14.5339 13.1277C14.1395 13.4065 14.0265 13.8528 14.0486 14.315C14.0536 14.4209 14.0753 14.6261 14.0543 14.7253C14.0307 14.8366 13.839 14.855 13.8242 15.0051C13.8159 15.0898 13.8327 15.1178 13.8455 15.1814C13.9046 15.4754 14.0695 15.3698 14.1895 15.5799C14.2113 15.6179 14.2473 15.7905 14.2666 15.8464C14.3257 16.0172 14.425 16.2162 14.5385 16.3566C14.7887 16.6662 14.9983 16.8347 15.3925 16.8872C15.9494 16.9096 16.3857 16.4492 16.5848 15.9792C16.7248 15.6487 16.6301 15.5317 16.974 15.3685C17.0438 15.3354 17.0641 15.1304 17.0683 15.0543C17.0773 14.8897 16.9735 14.871 16.8707 14.7767C16.817 14.6944 16.849 14.4579 16.8555 14.372C16.9267 13.4334 16.4128 12.9111 15.476 12.879Z" fill="#F5F5F5"/>
<path d="M19.2607 5.80595C19.0285 5.58406 18.4803 5.17897 18.1994 4.95816L16.0944 3.30121L13.2637 1.05701C12.8687 0.74634 12.3071 0.279439 11.9017 0C11.4265 0.346392 10.899 0.78478 10.4322 1.15443L7.70295 3.3195L4.35843 5.9732C3.82204 6.40024 3.23193 6.85262 2.70996 7.29145L2.70968 11.1225C2.86852 11.123 3.95617 11.1491 4.01231 11.1074C4.01403 11.1062 4.01445 11.1039 4.0156 11.1021C4.0386 10.9887 4.02703 10.6008 4.02888 10.4642C4.03574 9.97003 4.01946 9.4662 4.03689 8.97216L4.04031 8.98706C4.05846 8.68552 4.03317 8.32258 4.05703 8.017C4.05831 7.9989 4.0856 7.96819 4.09731 7.95451C4.32444 7.79834 4.62013 7.5478 4.84255 7.36911L6.0889 6.37007L10.1275 3.1492C10.5208 2.83971 10.912 2.52749 11.3009 2.21254C11.4386 2.10184 11.7759 1.8159 11.9115 1.72919C12.1715 1.92135 12.4458 2.14777 12.7007 2.34991L13.8518 3.25786L18.3667 6.84449C18.7022 6.31258 18.7533 6.22001 19.2607 5.80595Z" fill="#0089F1"/>
<path d="M11.0263 8.89464C10.3187 8.80506 9.4823 9.0473 9.12561 9.70758C8.89662 10.1315 8.88262 10.5044 8.90191 10.9712C8.67821 11.2335 8.6385 11.4624 8.72092 11.7995C8.7762 12.0255 8.89505 12.1794 9.09561 12.2983C9.21889 12.7401 9.34474 12.9327 9.62929 13.2815C9.62158 13.4555 9.56701 13.7578 9.41445 13.8502C9.10975 14.0349 8.73306 14.1309 8.40965 14.2955C8.46322 14.396 8.5435 14.5976 8.59164 14.7092C8.92048 14.5703 9.31031 14.4352 9.62287 14.2718C9.88056 14.1369 9.98242 13.8798 10.0488 13.6117C10.2487 13.7265 10.3374 13.7615 10.5644 13.7978C10.9332 13.8321 11.1445 13.7861 11.469 13.6238C11.5549 13.9725 11.6942 14.2096 12.043 14.3519C12.3373 14.4719 12.633 14.5916 12.9275 14.7113C12.9871 14.5772 13.047 14.4232 13.1033 14.2866C12.7949 14.1512 12.3985 14.0249 12.1132 13.8642C11.9453 13.7696 11.9046 13.4841 11.8794 13.303C12.1911 12.9144 12.2724 12.7695 12.4229 12.3032C12.7646 12.1115 12.8803 11.693 12.8119 11.3245C12.786 11.1848 12.7158 11.0915 12.6246 10.9896C12.6231 10.8769 12.6394 10.7599 12.6363 10.6423C12.6099 9.63214 12.0181 9.00858 11.0263 8.89464Z" fill="#0089F1"/>
<path d="M10.9167 9.35038C10.6345 9.29125 10.1327 9.41469 9.90698 9.55212C9.30502 9.92339 9.34701 10.5609 9.36758 11.1737C9.37187 11.3015 8.90961 11.3738 9.26816 11.8744C9.39801 11.9286 9.48715 11.9615 9.51915 12.108C9.63742 12.6492 10.018 13.2048 10.5939 13.34C11.3859 13.4595 11.874 12.6711 12.0166 12.0485C12.0387 11.9517 12.155 11.918 12.2456 11.8817C12.3117 11.7882 12.3651 11.676 12.3802 11.5623C12.4403 11.3971 12.1468 11.2593 12.1489 11.1793C12.1628 10.6701 12.2375 10.2049 11.8748 9.77537C11.6349 9.49133 11.3084 9.38339 10.9167 9.35038Z" fill="#F5F5F5"/>
<path d="M20.9134 6.338C19.7809 6.32636 18.8546 7.2376 18.8477 8.37024C18.8409 9.50285 19.7561 10.4253 20.8887 10.4273C22.0146 10.4294 22.9303 9.52084 22.9371 8.39498C22.9439 7.2691 22.0393 6.34957 20.9134 6.338Z" fill="#0089F1"/>
<path d="M13.0254 16.0293H8.48209L8.4818 16.489C9.53845 16.5077 10.6052 16.4793 11.6629 16.491C12.1151 16.496 12.5866 16.4983 13.0377 16.4863C13.0392 16.3416 13.0424 16.171 13.0254 16.0293Z" fill="#0089F1"/>
</svg>
