<svg width="734" height="634" viewBox="0 0 734 634" fill="none" xmlns="http://www.w3.org/2000/svg">
<path d="M600 233.332V33.332M500 133.332H700M500 599.999V559.999C500 503.992 500 475.992 489.1 454.599C479.513 435.782 464.217 420.485 445.4 410.899C424.007 399.999 396.007 399.999 340 399.999H193.333C137.328 399.999 109.325 399.999 87.9345 410.899C69.1182 420.485 53.8202 435.782 44.2328 454.599C33.3335 475.992 33.3335 503.992 33.3335 559.999V599.999M383.333 149.999C383.333 214.432 331.1 266.665 266.667 266.665C202.233 266.665 150 214.432 150 149.999C150 85.5654 202.233 33.332 266.667 33.332C331.1 33.332 383.333 85.5654 383.333 149.999Z" stroke="#0089F1" stroke-width="66.6667" stroke-linecap="round" stroke-linejoin="round"/>
</svg>
