<svg width="210" height="201" viewBox="0 0 210 201" fill="none" xmlns="http://www.w3.org/2000/svg">
<path d="M78.9507 126.7C81.7666 126.598 84.6976 126.613 87.647 126.641C90.6269 126.67 93.6275 126.712 96.5278 126.66C100.085 126.713 103.562 126.529 107.046 126.77C107.848 126.826 108.254 127.065 108.481 127.369C108.695 127.655 108.814 128.079 108.836 128.693L108.84 128.968C108.752 142.635 109.068 156.312 108.678 169.93C108.673 170.095 108.555 170.324 108.281 170.597C108.061 170.816 107.793 171.01 107.561 171.164C98.1598 171.039 88.074 171.457 78.7183 170.905H78.7173C78.3084 170.881 78.0363 170.671 77.8452 170.325C77.6427 169.957 77.5469 169.452 77.5493 168.944C77.6184 155.128 77.3735 141.298 77.6655 127.524C77.6755 127.51 77.6956 127.483 77.7349 127.445C77.8282 127.353 77.9701 127.247 78.1431 127.137C78.435 126.952 78.7602 126.79 78.9507 126.7Z" fill="#FDFDFD" stroke="#0089F1"/>
<path d="M79.2184 129.865C82.4318 129.806 106.05 129.58 107.045 130.022C107.277 130.125 107.394 130.32 107.471 130.557C107.76 131.456 107.705 162.367 107.56 165.872C107.544 166.283 107.473 166.559 107.3 166.933L78.8626 166.924C78.8059 165.814 78.7404 160.232 78.8218 159.262C79.1317 155.561 78.2323 131.264 79.2184 129.865Z" fill="#0089F1"/>
<path d="M79.8945 130.937C82.683 130.815 86.1973 130.905 89.0318 130.901L106.513 130.893C106.667 142.308 106.593 154.433 106.492 165.864L79.8573 165.877C79.8219 164.255 79.8255 162.559 79.8502 160.935C79.9954 150.973 79.6378 140.889 79.8945 130.937Z" fill="#FDFDFD"/>
<path d="M92.8505 140.869C93.5746 140.845 96.7225 141.986 97.6502 142.281C97.9583 147.233 98.1867 149.519 93.3516 151.944C93.2719 151.98 93.1763 152.035 93.0825 151.999C87.9836 150.139 88.5235 146.771 88.5908 142.304L92.8505 140.869Z" fill="#0089F1"/>
<path d="M92.7568 141.563C93.7606 141.59 95.8922 142.404 96.974 142.746C97.0554 146.854 97.5706 149.038 93.3817 151.179C92.6434 151.366 91.2306 150.495 90.7367 149.948C88.9326 147.948 89.2158 145.251 89.2495 142.76C90.402 142.431 91.6184 141.969 92.7568 141.563Z" fill="#FDFDFD"/>
<path d="M94.692 155.029L97.3902 155.066C97.4009 157.55 97.3938 160.023 97.3283 162.509C97.307 163.251 97.8169 163.736 98.3286 164.2L98.4773 164.333L98.2666 164.55C96.528 164.649 82.6069 164.782 82.0103 164.274C82.205 163.915 82.5449 163.922 83.0672 163.743C83.2726 163.29 83.1823 161.934 83.1735 161.36L85.9371 161.355L85.8433 163.826C86.2009 163.885 86.2983 163.858 86.663 163.847C87.3517 163.051 87.0561 160.824 87.0561 159.552H89.7383C89.7241 160.469 89.6356 162.86 89.7719 163.598C90.1968 163.957 89.9561 163.865 90.5226 163.865C91.1317 163.148 90.8608 158.947 90.8502 157.647L93.5483 157.649C93.5483 159.407 93.4828 161.257 93.497 163.019C93.5005 163.477 93.8015 163.695 94.0865 163.954L94.43 163.913C94.8886 163.026 94.6938 156.401 94.692 155.029Z" fill="#0089F1"/>
<path d="M95.3558 155.635C95.8958 155.648 96.0941 155.603 96.558 155.888C96.8784 156.74 96.7297 162.547 96.7173 163.91C96.1773 163.921 96.0056 163.96 95.4974 163.751C95.2036 162.726 95.3434 157.101 95.3558 155.635Z" fill="#FDFDFD"/>
<path d="M91.6928 158.187C92.2522 158.224 92.1796 158.158 92.6506 158.397C93.2401 159.622 92.925 162.552 92.8382 164.011C92.3514 163.956 92.1903 163.925 91.7158 163.804C91.3298 163.146 91.4378 158.971 91.6928 158.187Z" fill="#FDFDFD"/>
<path d="M87.8119 160.132C88.1395 160.171 88.6635 160.177 88.8105 160.387C89.3505 161.156 89.0371 163.101 88.9415 164.036C88.4192 163.937 87.9837 163.983 87.7871 163.546C87.4065 162.707 87.6544 160.991 87.8119 160.132Z" fill="#FDFDFD"/>
<path d="M83.9545 161.892C84.9265 162.005 84.7565 161.892 85.1867 162.43C85.293 163.055 85.1673 163.448 85.0486 164.068C84.4821 163.978 84.4007 164.011 83.935 163.664C83.6606 163.14 83.8553 162.508 83.9545 161.892Z" fill="#FDFDFD"/>
<path d="M101.889 132.67C102.566 132.804 105.205 135.039 105.248 135.805C104.076 136.381 104.609 137.36 104.471 138.769C103.791 139.405 103.915 138.682 102.966 139.306C102.265 144.098 104.949 144.874 104.8 146.536C104.761 146.988 104.667 147.193 104.341 147.499C102.927 148.059 102.291 147.499 101.448 146.453C100.59 146.43 99.7151 146.538 98.9769 146.179L99.0052 145.955C99.832 145.608 100.581 145.695 101.491 145.699C101.841 145.208 102.125 144.918 102.539 144.475C102.41 142.62 102.62 136.689 99.4956 140.042C98.9485 140.607 98.598 141.092 97.8774 141.241L97.8243 140.95C98.1483 140.116 98.7785 139.654 99.446 139.026C99.5151 135.083 98.7821 135.283 95.0376 134.954C94.5507 135.366 94.016 135.777 93.515 136.175C93.5451 137.386 93.6885 138.589 93.2105 139.692L93.0157 139.49C92.7218 138.463 92.8298 137.291 92.8564 136.209C91.8348 135.522 90.6752 133.939 92.2881 132.781C92.9715 132.291 94.7366 134.081 95.4023 134.242C96.6575 134.545 98.166 134.614 99.5292 134.709L101.889 132.67Z" fill="#0089F1"/>
<path d="M101.985 133.559C102.625 133.833 103.288 134.617 103.801 135.143C103.792 136.188 103.966 137.742 103.466 138.461C102.719 137.395 103.258 136.698 102.533 136.078C99.6157 136.267 101.563 137.101 100.653 138.303L100.381 138.298C100.11 137.739 100.195 135.809 100.196 135.083L101.985 133.559Z" fill="#FDFDFD"/>
<path d="M102.636 145.385C102.907 145.176 103.272 145.137 103.582 145.28C103.892 145.425 104.095 145.73 104.111 146.072C104.127 146.413 103.952 146.734 103.656 146.907C103.238 147.15 102.702 147.028 102.431 146.624C102.162 146.222 102.252 145.679 102.636 145.385Z" fill="#FDFDFD"/>
<path d="M92.6683 133.714C93.0684 133.441 93.6102 133.531 93.9006 133.917C94.1891 134.305 94.1219 134.852 93.7465 135.156C93.4898 135.365 93.1393 135.417 92.833 135.289C92.5267 135.164 92.316 134.88 92.2806 134.551C92.2469 134.222 92.3957 133.899 92.6683 133.714Z" fill="#FDFDFD"/>
<path d="M82.49 144.379C82.6458 144.398 82.8016 144.42 82.9574 144.444C84.0091 144.616 84.0693 144.88 84.7119 145.776C85.6166 145.772 86.4222 145.65 87.2402 145.985L87.2295 146.197C86.3496 146.537 85.6042 146.436 84.6517 146.415C84.3154 146.981 84.025 147.297 83.5983 147.805C83.9028 148.855 84.0356 149.637 84.2215 150.712C84.9917 151.379 85.7707 152.038 86.5585 152.684C87.0755 152.155 88.545 150.478 89.1257 150.457C89.5276 151.505 87.5163 152.091 87.3481 153.148C87.4668 153.385 87.5022 153.534 87.5836 153.785C86.8028 154.839 86.902 155.968 86.9498 157.204H81.8863C81.9288 156.372 82.0138 155.512 81.7075 154.74C81.5056 154.23 81.4667 154.12 81.4808 153.607C81.8845 152.835 82.9397 152.079 83.6461 151.484C83.5239 150.66 83.2354 148.235 82.6918 147.737C81.3056 146.465 80.4115 146.002 82.49 144.379Z" fill="#0089F1"/>
<path d="M84.4342 151.818C84.8733 152.126 85.7479 152.898 86.1976 153.271C86.1958 153.981 86.2755 155.895 85.9993 156.437L85.7585 156.485C85.0822 155.458 85.7178 154.874 84.8042 154.192C82.0087 154.534 84.1137 155.208 83.032 156.511L82.7646 156.465C82.4336 155.897 82.538 154.141 82.5416 153.371C83.0515 152.887 83.8676 152.273 84.4342 151.818Z" fill="#FDFDFD"/>
<path d="M82.7592 145.203C83.1824 145.097 83.6197 145.309 83.7985 145.708C83.9755 146.106 83.8392 146.575 83.478 146.818C83.1806 147.016 82.7946 147.019 82.4937 146.827C82.1927 146.634 82.0369 146.279 82.0935 145.927C82.152 145.575 82.4122 145.29 82.7592 145.203Z" fill="#FDFDFD"/>
<path d="M96.8203 150.344C98.4615 150.79 99.8478 153.693 101.036 153.888C101.408 153.564 101.517 153.401 101.988 153.276C102.638 153.66 105.209 155.685 105.212 156.383L104.651 156.664C104.389 157.371 104.49 158.697 104.499 159.508H99.4353C99.5539 156.944 99.3007 158.089 98.9431 156.135C99.0723 155.448 99.7717 154.986 100.328 154.494C99.3043 153.405 97.0009 151.502 96.8203 150.344Z" fill="#0089F1"/>
<path d="M101.942 154.093C102.535 154.461 103.323 155.235 103.863 155.729C103.847 156.78 103.799 157.692 103.723 158.742L103.475 158.877C102.884 157.867 103.192 157.041 102.509 156.506C102.004 156.554 101.65 156.605 101.149 156.69C100.589 157.673 101.446 158.257 100.543 158.871L100.251 158.634C100.073 157.97 100.085 156.476 100.065 155.725L101.942 154.093Z" fill="#FDFDFD"/>
<path d="M84.2496 133.347C85.0552 133.701 87.1496 135.592 87.6843 136.284L87.6259 136.627L87.139 136.845C86.8203 137.302 86.9513 138.557 86.9637 139.195C87.4647 139.639 88.8085 140.66 88.5642 141.365C87.9941 141.255 87.8047 140.963 87.3922 140.544L86.5459 139.796L81.8843 139.814C81.9462 137.69 81.8843 138.198 81.4771 136.185C81.686 135.639 83.6901 133.892 84.2496 133.347Z" fill="#0089F1"/>
<path d="M84.4095 134.264C84.9088 134.602 85.7108 135.353 86.1941 135.776C86.1941 136.432 86.295 138.58 86.0029 138.991L85.7001 139.023C85.107 137.944 85.7869 137.36 84.7884 136.693C82.1769 136.999 83.912 137.732 83.1843 138.973L82.7807 139.04C82.4159 138.662 82.5541 136.622 82.5523 135.901L84.4095 134.264Z" fill="#FDFDFD"/>
<path d="M93.0103 168.046C93.7521 167.975 94.4178 168.503 94.5188 169.239C94.6214 169.977 94.1239 170.664 93.391 170.799C92.8882 170.891 92.3765 170.698 92.056 170.3C91.7356 169.901 91.6612 169.36 91.8613 168.889C92.0596 168.418 92.5022 168.094 93.0103 168.046Z" fill="#0089F1"/>
<path d="M153.821 182.248C153.831 185.285 153.873 188.315 153.853 191.334V191.335C153.844 192.781 153.621 194.204 152.667 195.042L152.666 195.042C152.185 195.466 151.421 195.798 150.751 195.901L150.471 195.931C148.93 196.013 147.271 195.98 145.693 195.978L136.916 195.969L126.508 195.957C126.281 195.956 125.843 195.968 125.33 195.978C124.811 195.988 124.201 195.998 123.609 195.994C123.013 195.989 122.447 195.971 122.012 195.929C121.948 195.923 121.889 195.915 121.833 195.908C122.582 194.857 122.976 193.954 123.172 192.989C123.358 192.076 123.362 191.123 123.364 189.999C125.014 189.571 126.185 188.5 126.448 187.263C126.583 186.624 126.467 185.964 126.064 185.392C125.665 184.827 125.011 184.382 124.129 184.1L124.073 184.083L124.014 184.078C123.19 184.017 121.322 183.875 119.512 183.857C118.608 183.848 117.706 183.87 116.949 183.951C116.571 183.991 116.219 184.047 115.915 184.125C115.694 184.182 115.476 184.257 115.287 184.36L115.11 184.473C114.221 185.135 113.804 185.866 113.822 186.658C113.838 187.405 114.243 188.078 114.677 188.637C114.899 188.924 115.145 189.202 115.381 189.461C115.621 189.726 115.846 189.968 116.047 190.204C116.248 190.439 116.405 190.648 116.511 190.835C116.565 190.93 116.6 191.011 116.622 191.079C116.565 191.129 116.505 191.17 116.428 191.206L116.27 191.268C116.123 191.319 115.785 191.379 115.249 191.435C114.73 191.489 114.071 191.534 113.315 191.571C111.803 191.643 109.923 191.678 108.05 191.669C106.177 191.661 104.318 191.61 102.845 191.512C102.108 191.463 101.474 191.403 100.988 191.332C100.744 191.296 100.545 191.259 100.391 191.221C100.309 191.201 100.249 191.183 100.206 191.167L100.126 191.133C99.9558 191.035 99.908 190.975 99.8821 190.932C99.8514 190.881 99.8283 190.815 99.7883 190.671C99.9236 190.304 100.142 190.035 100.41 189.797C100.563 189.662 100.729 189.538 100.908 189.409C101.082 189.284 101.278 189.147 101.457 189.003C101.821 188.712 102.189 188.335 102.346 187.763C102.501 187.198 102.424 186.53 102.106 185.698L102.102 185.686L102.097 185.675L101.99 185.458C101.412 184.417 100.271 184.072 99.2249 183.95C98.6539 183.883 98.0636 183.877 97.5286 183.88C96.9799 183.884 96.508 183.896 96.1184 183.874C95.2992 183.825 93.9873 183.787 92.8079 184.028C91.6629 184.262 90.4144 184.812 90.1096 186.121C89.8167 187.377 90.0408 188.309 90.7073 188.973C91.2429 189.506 92.0124 189.806 92.8 190.023C92.8554 191.401 92.9264 192.467 93.2307 193.462C93.4896 194.309 93.9104 195.083 94.5862 195.961L74.6497 195.976C70.9423 195.983 68.3373 196.024 66.4836 195.846C64.6213 195.668 63.6858 195.278 63.1584 194.576C62.6056 193.839 62.3983 192.635 62.3772 190.52C62.3571 188.505 62.497 185.868 62.5452 182.248H153.821Z" fill="#FDFDFD" stroke="#0089F1"/>
<path d="M132.828 183.696C136.009 183.547 140.005 183.935 143.026 183.646C147.232 183.244 146.204 189.765 144.94 191.045C143.022 191.481 134.823 191.376 132.688 190.788C131.518 190.466 131.691 185.275 132.828 183.696Z" fill="#0089F1"/>
<path d="M133.578 185.113C137.167 185.139 140.754 185.134 144.341 185.097C144.358 186.626 144.355 188.156 144.328 189.686C140.768 189.634 137.101 189.673 133.534 189.668L133.578 185.113Z" fill="#FDFDFD"/>
<path d="M140.397 186.616C141.355 186.614 142.376 186.405 143.012 187.206C142.856 187.891 143.001 187.579 142.493 188.141C141.615 188.16 140.455 188.376 139.903 187.634C139.915 187.115 140.066 187.034 140.397 186.616Z" fill="#0089F1"/>
<path d="M135.894 185.728C136.374 185.903 136.342 185.903 136.712 186.266C137.07 187.234 137.008 187.981 136.611 188.941L136.05 188.87C135.246 188.121 135.411 186.623 135.894 185.728Z" fill="#0089F1"/>
<path d="M71.1877 183.707C73.0662 183.567 82.3434 183.459 83.6907 184.059C84.3847 184.864 84.3086 185.594 84.2555 186.603C84.1616 188.412 84.9017 189.708 83.4074 191.033C82.1787 191.293 72.9989 191.406 71.3046 190.87C71.1098 190.81 70.5911 190.043 70.5822 189.728C70.5167 187.524 70.0582 185.58 71.1877 183.707Z" fill="#0089F1"/>
<path d="M72.046 185.07C75.6913 185.13 79.2234 185.252 82.8723 185.162C82.9148 186.886 82.9325 188.058 82.6174 189.756C79.1597 189.815 75.4683 189.747 71.9946 189.742L72.046 185.07Z" fill="#FDFDFD"/>
<path d="M73.6677 186.619C73.8996 186.611 74.1316 186.604 74.3635 186.598C75.1319 186.582 75.7834 186.49 76.3535 187.035C76.4774 187.696 76.4703 187.448 76.1658 188.149L75.8312 188.158C74.8663 188.185 74.1015 188.347 73.4322 187.712C73.372 187.069 73.3862 187.276 73.6677 186.619Z" fill="#0089F1"/>
<path d="M79.7722 185.901C80.4273 186.006 80.1652 185.866 80.6203 186.27C80.9265 187.196 80.861 188.081 80.4892 188.984C79.8218 188.791 80.0856 188.964 79.6323 188.507C79.2729 187.559 79.4181 186.849 79.7722 185.901Z" fill="#0089F1"/>
<path d="M117.028 131.729C123.327 131.771 129.625 131.78 135.924 131.758C135.923 132.266 135.918 132.737 135.911 133.176C135.902 133.752 135.893 134.278 135.905 134.746C135.928 135.654 136.025 136.465 136.438 137.055C136.884 137.691 137.607 137.958 138.575 138.01C139.425 138.056 140.548 137.941 142.018 137.7L142.01 165.998L117.252 165.902C117.077 164.65 117.013 162.602 117 160.47C116.985 158.097 117.029 155.709 117.03 154.279L117.028 131.729Z" fill="#FDFDFD" stroke="#0089F1"/>
<path d="M119.493 141.411C121.968 141.372 138.18 141.133 139.469 141.597C139.802 142.071 139.715 141.87 139.6 142.615L125.615 142.636C123.822 142.638 121.676 142.691 119.888 142.558C119.502 142.53 119.479 142.362 119.321 142.107L119.493 141.411Z" fill="#0089F1"/>
<path d="M119.643 144.477C122.037 144.457 138.797 144.195 139.603 144.733C139.75 145.314 139.75 145.01 139.435 145.668C137.002 145.663 120.146 145.93 119.404 145.369C119.305 144.764 119.26 145.057 119.643 144.477Z" fill="#0089F1"/>
<path d="M127.111 150.515L135.243 150.526C136.379 150.53 139.016 150.255 139.644 151.103L139.48 151.372C138.106 151.96 133.752 151.739 131.985 151.719C130.174 151.716 120.382 151.974 119.404 151.431L119.319 151.098L119.624 150.7C120.394 150.354 125.866 150.508 127.111 150.515Z" fill="#0089F1"/>
<path d="M119.611 147.475C122.159 147.476 138.8 147.225 139.605 147.76C139.745 148.315 139.745 148.023 139.437 148.654C136.737 148.636 120.265 148.855 119.438 148.402C119.263 147.841 119.271 148.142 119.611 147.475Z" fill="#0089F1"/>
<path d="M119.302 153.601C123.025 153.412 127.564 153.679 131.365 153.561C132.603 153.524 138.481 153.493 139.391 153.688C139.805 154.147 139.644 153.871 139.688 154.66C136.473 154.853 132.097 154.582 128.779 154.717C127.269 154.779 120.86 154.83 119.634 154.625C119.222 154.189 119.349 154.356 119.302 153.601Z" fill="#0089F1"/>
<path d="M119.531 138.453C123.309 138.428 129.657 138.29 133.537 138.59C133.75 138.607 133.773 138.788 133.881 139.011L133.684 139.558C131.804 139.56 120.262 139.769 119.457 139.379C119.237 138.827 119.264 139.122 119.531 138.453Z" fill="#0089F1"/>
<path d="M119.277 156.606C120.794 156.553 129.51 156.478 130.576 156.684C130.939 157.121 130.824 157.002 130.875 157.689C128.062 157.702 122.081 157.9 119.64 157.64C119.22 157.282 119.357 157.351 119.277 156.606Z" fill="#0089F1"/>
<path d="M134.425 161.141C135.715 161.113 138.608 160.89 139.626 161.451L139.702 161.732L139.474 162.037C138.656 162.294 137.523 162.203 136.632 162.193C135.508 162.196 132.661 162.363 131.889 161.665C132.401 160.904 133.58 161.123 134.425 161.141Z" fill="#0089F1"/>
<path d="M142.43 118.975C142.512 121.538 142.462 124.097 142.438 126.692C142.418 128.983 142.422 131.297 142.561 133.637C141.143 132.129 139.716 130.632 138.273 129.148L138.132 129.004L137.93 128.997C137.528 128.985 137.127 128.975 136.726 128.966C130.006 128.817 123.071 128.96 116.358 129.069H116.357C115.094 129.091 114.232 130.223 114.195 131.353C114.096 134.433 114.142 137.54 114.144 140.607L114.151 158.99L111.773 158.991L111.76 143.611C111.759 142.807 111.794 141.45 111.827 139.817C111.86 138.19 111.891 136.3 111.881 134.444C111.871 132.591 111.821 130.761 111.691 129.261C111.627 128.511 111.541 127.833 111.429 127.271C111.333 126.791 111.209 126.355 111.039 126.026L110.963 125.892C110.271 124.772 109.039 123.991 107.769 123.777H107.768C106.411 123.551 104.84 123.682 103.584 123.681L95.3701 123.677L84.9512 123.681C82.3386 123.678 80.3688 123.683 78.9062 123.859C77.4473 124.035 76.3755 124.391 75.6631 125.188C74.9586 125.976 74.6936 127.1 74.583 128.572C74.4718 130.052 74.5117 132.014 74.5205 134.559L74.54 150.336V150.338C74.5507 152.726 74.5792 155.127 74.5527 157.507V157.508C74.5488 157.892 74.565 158.237 74.5195 158.565C74.4869 158.801 74.4284 158.955 74.3545 159.057C74.2671 159.06 74.2005 159.062 74.1504 159.065C74.1404 159.066 74.1317 159.066 74.124 159.066C74.0967 159.049 74.0545 159.022 74 158.987C73.9997 158.985 73.9994 158.982 73.999 158.979C73.9844 158.868 73.9702 158.712 73.957 158.514C73.9307 158.118 73.9096 157.58 73.8936 156.94C73.8615 155.662 73.8493 153.999 73.8467 152.303C73.8413 148.894 73.876 145.418 73.876 144.596L73.8926 119.029C75.6802 118.955 77.9524 119.017 79.7246 119.017H79.7266L91.002 118.971L142.43 118.975Z" fill="#FDFDFD" stroke="#0089F1"/>
<path d="M113.342 168.484C113.157 169.325 112.923 170.198 112.69 171.095C112.405 172.193 112.128 173.324 111.989 174.424C111.822 175.739 111.875 177.516 111.891 178.806V178.808C111.896 179.089 111.888 179.193 111.866 179.399C111.851 179.4 111.83 179.403 111.801 179.402C96.876 179.307 81.9752 179.532 67.0698 179.366C68.9328 175.884 70.7239 172 72.5005 168.493C73.1345 168.502 73.7682 168.514 74.4019 168.531C74.5453 169.975 74.8803 171.08 75.4116 171.912C76.0062 172.844 76.8191 173.395 77.7739 173.711C78.7117 174.021 79.7882 174.106 80.9263 174.121C81.4982 174.129 82.0975 174.119 82.7114 174.109C83.3277 174.099 83.9607 174.088 84.6118 174.094H84.6147L98.979 174.133H98.98C100.23 174.134 101.518 174.147 102.792 174.145L104.058 174.137C105.265 174.124 106.349 174.11 107.28 174.009C108.211 173.907 109.041 173.712 109.727 173.302C111.072 172.498 111.679 170.996 111.762 168.477L113.342 168.484Z" fill="#FDFDFD" stroke="#0089F1"/>
<path d="M72.5059 115.737C77.6916 115.634 83.1655 115.722 88.3838 115.722L119.153 115.717L135.585 115.712C138.341 115.71 141.113 115.648 143.832 115.775C144.634 115.871 145.1 116.298 145.391 116.894C145.697 117.522 145.8 118.337 145.803 119.117C145.845 132.43 145.755 145.733 145.739 159.049C145.738 159.74 145.707 160.358 145.528 160.858C145.419 161.162 145.255 161.419 144.994 161.62C144.961 161.318 144.932 160.916 144.91 160.438C144.862 159.391 144.843 158.014 144.838 156.594C144.833 155.168 144.843 153.715 144.854 152.512L144.878 149.931L144.899 126.445C144.901 124.847 144.904 123.258 144.906 121.667C144.908 120.689 144.922 119.878 144.877 119.239C144.832 118.606 144.724 118.041 144.412 117.603C144.084 117.14 143.591 116.899 142.971 116.771C142.363 116.645 141.568 116.614 140.554 116.62H140.555L96.5996 116.59H96.5986L82.4922 116.596C81.6594 116.596 79.3429 116.523 77.1553 116.571C76.057 116.596 74.967 116.651 74.084 116.764C73.6434 116.82 73.2401 116.892 72.9072 116.987C72.5945 117.076 72.2655 117.206 72.0479 117.423L71.9727 117.497L71.9346 117.595C71.7249 118.13 71.6016 118.895 71.5244 119.733C71.4461 120.585 71.4122 121.56 71.4014 122.54C71.3907 123.511 71.4027 124.51 71.418 125.408L71.4521 127.666L71.4688 142.367L71.458 153.382V153.383C71.4597 155.345 71.3511 157.944 71.6914 159.955C71.7682 160.408 71.9669 160.752 72.2852 160.98C72.5813 161.193 72.9288 161.266 73.2197 161.304C73.3687 161.323 73.5222 161.335 73.6621 161.347C73.8065 161.358 73.9397 161.37 74.0693 161.387C74.2539 161.411 74.4098 161.445 74.543 161.496C74.5801 161.667 74.5653 161.845 74.5068 161.956C74.4338 162.094 74.3879 162.158 74.3467 162.199C74.3092 162.237 74.2537 162.279 74.1318 162.334C73.6689 162.544 73.0193 162.44 72.415 162.187H72.416C71.6336 161.857 70.937 161.315 70.6768 160.617C70.6748 160.609 70.6661 160.569 70.6533 160.479C70.6391 160.378 70.6246 160.242 70.6104 160.07C70.5819 159.727 70.555 159.261 70.5312 158.686C70.4839 157.536 70.447 155.967 70.4189 154.112C70.3628 150.404 70.3424 145.563 70.3438 140.656C70.3461 132.064 70.4158 123.286 70.4785 120.038L70.5049 119.002C70.5189 118.643 70.5228 118.283 70.5596 117.923C70.5963 117.564 70.6614 117.258 70.7734 117.026C71.0978 116.356 71.6885 116.018 72.5059 115.737Z" fill="#FDFDFD" stroke="#0089F1"/>
<path d="M95.4658 186.289C99.8795 187.105 95.4445 192.896 99.7485 193.682C103.022 194.279 106.976 193.789 110.421 193.936C112.188 193.849 116.393 194.235 117.885 193.096C119.339 191.99 117.995 187.606 119.725 186.349C120.431 186.374 120.118 186.275 120.705 186.636C121.1 187.298 120.964 188.573 120.957 189.421C121.012 192.886 120.01 196.421 116.023 196.427C110.702 196.434 104.635 196.644 99.3874 196.297C95.1383 196.016 94.6337 189.389 95.4658 186.289Z" fill="#0089F1"/>
<path d="M110.792 108.524C111.964 108.523 113.077 108.571 113.967 108.729C114.412 108.809 114.783 108.912 115.072 109.04C115.302 109.143 115.458 109.253 115.559 109.36C115.608 109.765 115.66 110.459 115.673 111.157C115.68 111.545 115.676 111.926 115.656 112.249C115.643 112.44 115.625 112.597 115.605 112.72L115.557 112.736L100.706 112.734C100.672 111.9 100.615 111.206 100.665 110.522C100.717 109.819 100.891 109.205 101.331 108.626C101.704 108.604 102.335 108.582 102.972 108.571C103.764 108.558 104.496 108.563 104.741 108.593H104.742C105.362 108.666 106.311 108.646 107.359 108.612C108.425 108.578 109.623 108.526 110.792 108.524Z" fill="#FDFDFD" stroke="#0089F1"/>
<path d="M110.083 104.366C112.204 104.354 113.878 104.36 115.208 104.513C116.539 104.666 117.457 104.96 118.11 105.475C118.751 105.98 119.201 106.749 119.483 107.993C119.745 109.155 119.85 110.691 119.845 112.732L118.635 112.729C118.641 112.565 118.646 112.4 118.654 112.235C118.669 111.902 118.686 111.564 118.696 111.231C118.714 110.568 118.706 109.898 118.601 109.259C118.385 107.944 117.759 106.77 116.22 105.958L116.167 105.93L116.109 105.915L115.877 105.858C115.627 105.801 115.331 105.745 115.055 105.742H115.052C110.567 105.709 105.945 105.523 101.428 105.767C100.361 105.824 99.5473 106.144 98.9524 106.686C98.3626 107.222 98.0362 107.931 97.8557 108.677C97.6759 109.42 97.6334 110.231 97.635 111.009C97.6362 111.57 97.6601 112.186 97.677 112.727L96.47 112.733C96.4395 110.796 96.3762 109.04 96.8293 107.593C97.0685 106.829 97.448 106.173 98.0461 105.642C98.6395 105.114 99.4772 104.683 100.674 104.409C100.677 104.409 100.68 104.409 100.684 104.409C100.7 104.409 100.72 104.407 100.741 104.406L100.742 104.407L110.083 104.366Z" fill="#FDFDFD" stroke="#0089F1"/>
<path d="M73.3091 165.214C73.8554 165.226 74.2665 165.323 74.5474 165.54C74.5786 165.722 74.5809 165.761 74.5767 165.793C74.5746 165.809 74.5687 165.838 74.5425 165.91C74.5265 165.953 74.5069 166 74.4829 166.06C74.1838 166.19 73.7968 166.203 73.2739 166.186C72.7353 166.169 72.012 166.116 71.3901 166.369C71.2217 166.437 71.0755 166.557 70.9575 166.672C70.8333 166.794 70.707 166.944 70.5806 167.111C70.3273 167.445 70.0472 167.883 69.7544 168.383C69.1677 169.386 68.5029 170.684 67.856 172.01C67.2081 173.338 66.5741 174.704 66.0493 175.845C65.5218 176.992 65.1096 177.9 64.8989 178.331L64.8901 178.348L64.8833 178.367C64.7759 178.639 64.6498 178.907 64.519 179.194C64.2956 179.329 64.0321 179.391 63.7046 179.41C63.5307 179.42 63.3618 179.416 63.1851 179.41C65.3939 175.035 67.6527 170.233 69.9243 166.067C70.4407 165.737 70.8535 165.583 71.4839 165.321C71.7662 165.304 72.0724 165.277 72.3589 165.254C72.687 165.228 73.0066 165.208 73.3091 165.214Z" fill="#FDFDFD" stroke="#0089F1"/>
<path d="M129.316 168.798C129.65 169.855 129.961 170.738 130.236 171.526C130.542 172.405 130.8 173.162 130.998 173.938C131.367 175.386 131.532 176.924 131.374 179.4L128.833 179.42C128.857 176.797 128.861 175.354 128.66 173.94C128.463 172.556 128.07 171.207 127.34 168.809L129.316 168.798Z" fill="#FDFDFD" stroke="#0089F1"/>
<path d="M144.979 165.532C145.228 165.583 145.473 165.638 145.704 165.719C146.105 165.858 146.366 166.037 146.499 166.277V166.278C148.376 169.659 150.032 173.165 151.799 176.641C152.229 177.487 152.728 178.466 153.081 179.358C152.962 179.36 152.842 179.362 152.724 179.358C152.537 179.353 152.369 179.339 152.23 179.312C152.084 179.285 152.006 179.251 151.974 179.229C151.972 179.227 151.959 179.216 151.935 179.19C151.908 179.162 151.874 179.122 151.834 179.068C151.753 178.96 151.658 178.812 151.548 178.625C151.329 178.25 151.072 177.748 150.787 177.153C150.217 175.964 149.552 174.445 148.867 172.91C148.186 171.383 147.485 169.839 146.849 168.624C146.531 168.017 146.223 167.48 145.938 167.062C145.795 166.854 145.652 166.666 145.51 166.513C145.377 166.368 145.224 166.232 145.054 166.141C144.979 165.943 144.97 165.772 144.979 165.532Z" fill="#FDFDFD" stroke="#0089F1"/>
<path d="M125.854 172.028C125.919 172.251 125.977 172.449 126.024 172.668C126.064 172.856 126.079 173.018 126.075 173.158L126.028 173.171L114.591 173.211L114.936 172.031L125.854 172.028Z" fill="#FDFDFD" stroke="#0089F1"/>
<path d="M114.29 175.53C117.546 175.508 123.67 175.349 126.495 175.579C126.533 175.688 126.554 175.824 126.548 175.995C126.543 176.149 126.518 176.309 126.487 176.474L114.251 176.471C114.257 176.169 114.272 175.848 114.29 175.53Z" fill="#FDFDFD" stroke="#0089F1"/>
<path d="M143.797 168.648C143.885 168.657 143.974 168.676 144.094 168.731C144.49 169.522 145.748 172.052 146.939 174.525C147.577 175.851 148.196 177.158 148.651 178.169C148.868 178.651 149.044 179.061 149.169 179.373C148.239 179.389 147.267 179.385 146.323 179.386C146.337 178.641 146.361 177.752 146.362 176.9C146.363 175.97 146.334 175.021 146.224 174.225L146.172 173.893L146.134 173.719C146.03 173.308 145.819 172.854 145.586 172.408C145.316 171.892 144.981 171.324 144.677 170.788C144.367 170.241 144.085 169.72 143.893 169.256C143.794 169.016 143.728 168.812 143.691 168.642C143.727 168.642 143.762 168.645 143.797 168.648Z" fill="#FDFDFD" stroke="#0089F1"/>
<path d="M142.688 172.03C142.886 172.409 143.062 172.781 143.239 173.169C140.192 173.251 136.479 173.159 133.411 173.147C133.265 172.776 133.136 172.407 133.007 172.024L142.688 172.03Z" fill="#FDFDFD" stroke="#0089F1"/>
<path d="M138.847 175.492C140.039 175.491 141.212 175.499 142.157 175.524C142.63 175.536 143.042 175.553 143.37 175.575C143.541 175.586 143.682 175.597 143.791 175.61C143.832 175.738 143.856 175.879 143.861 176.043C143.866 176.186 143.86 176.322 143.853 176.47C142.751 176.475 140.69 176.491 138.657 176.476C137.47 176.467 136.304 176.448 135.362 176.408C134.891 176.387 134.481 176.362 134.155 176.332C133.976 176.315 133.832 176.295 133.723 176.278C133.69 176.168 133.671 176.04 133.664 175.888C133.659 175.767 133.661 175.651 133.665 175.53C134.755 175.519 136.814 175.493 138.847 175.492Z" fill="#FDFDFD" stroke="#0089F1"/>
<path d="M131.878 168.827C134.782 168.753 138.262 168.828 141.184 168.834C141.364 169.204 141.479 169.445 141.573 169.744C138.64 169.631 135.093 169.724 132.188 169.742L131.878 168.827Z" fill="#FDFDFD" stroke="#0089F1"/>
<path d="M115.714 168.81C118.763 168.851 121.88 168.833 124.923 168.84C124.975 169.037 125.021 169.215 125.054 169.41C125.076 169.54 125.083 169.652 125.08 169.748C121.882 169.705 118.684 169.698 115.487 169.724L115.714 168.81Z" fill="#FDFDFD" stroke="#0089F1"/>
<path d="M114.217 178.884C117.442 178.863 123.7 178.709 126.476 178.938C126.51 179.025 126.516 179.073 126.518 179.118C126.52 179.173 126.517 179.236 126.509 179.348C125.205 179.29 123.848 179.299 122.5 179.318C120.971 179.341 119.459 179.376 118.022 179.345C117.373 179.33 116.629 179.361 115.955 179.365C115.35 179.369 114.775 179.354 114.263 179.281C114.212 179.18 114.21 179.147 114.208 179.119C114.206 179.073 114.209 179.016 114.217 178.887V178.884Z" fill="#FDFDFD" stroke="#0089F1"/>
<path d="M138.851 178.837C140.941 178.835 142.918 178.861 143.814 178.949C143.87 179.051 143.875 179.086 143.878 179.116C143.883 179.156 143.882 179.204 143.88 179.301C142.561 179.278 140.594 179.323 138.708 179.347C136.668 179.373 134.748 179.372 133.735 179.257C133.671 179.153 133.673 179.125 133.67 179.104C133.666 179.06 133.667 179.003 133.672 178.869C133.672 178.867 133.672 178.865 133.672 178.863C134.869 178.859 136.904 178.838 138.851 178.837Z" fill="#FDFDFD" stroke="#0089F1"/>
<path d="M138.393 133.396C138.705 133.662 139.06 133.991 139.414 134.335C139.78 134.691 140.14 135.058 140.446 135.379C140.224 135.387 139.983 135.392 139.735 135.394C139.26 135.397 138.789 135.39 138.389 135.386L138.393 133.396Z" fill="#FDFDFD" stroke="#0089F1"/>
<path d="M112.942 165.228C113.424 165.221 113.807 165.262 114.086 165.383C114.188 165.591 114.206 165.684 114.211 165.778C114.214 165.854 114.21 165.94 114.202 166.09C114.2 166.117 114.199 166.146 114.197 166.176C114.084 166.182 113.97 166.186 113.858 166.193C113.58 166.209 113.304 166.223 113.039 166.226C112.566 166.231 112.187 166.195 111.92 166.1C111.798 165.889 111.775 165.786 111.766 165.684C111.76 165.604 111.762 165.512 111.768 165.36C111.769 165.335 111.768 165.31 111.769 165.283C111.884 165.278 111.999 165.273 112.112 165.266C112.397 165.249 112.673 165.232 112.942 165.228Z" fill="#FDFDFD" stroke="#0089F1"/>
<path d="M112.966 161.455C113.421 161.455 113.772 161.487 114.055 161.595C114.175 161.805 114.186 161.874 114.19 161.939C114.194 162.003 114.19 162.078 114.181 162.229C114.179 162.259 114.178 162.291 114.176 162.324C114.055 162.33 113.934 162.336 113.816 162.343C113.534 162.359 113.264 162.376 113.002 162.378C112.537 162.382 112.167 162.341 111.891 162.226C111.764 161.99 111.75 161.912 111.746 161.837C111.742 161.77 111.746 161.691 111.756 161.535C111.758 161.511 111.759 161.486 111.76 161.46C112.196 161.473 112.618 161.455 112.966 161.455Z" fill="#FDFDFD" stroke="#0089F1"/>
<path d="M133.4 112.739C133.777 112.733 134.137 112.743 134.446 112.779C134.565 112.793 134.67 112.811 134.763 112.831C134.383 112.85 133.958 112.867 133.531 112.869C133.127 112.871 132.741 112.858 132.414 112.82C132.347 112.813 132.285 112.802 132.228 112.793C132.596 112.768 132.998 112.746 133.4 112.739Z" fill="#FDFDFD" stroke="#0089F1"/>
<path d="M82.9165 112.748C83.2932 112.739 83.6514 112.745 83.9614 112.779C84.0774 112.791 84.1812 112.809 84.2729 112.828C84.2405 112.829 84.2079 112.831 84.1753 112.833C83.8208 112.851 83.4507 112.87 83.0864 112.875C82.5871 112.883 82.134 112.865 81.7661 112.806C81.7772 112.805 81.7882 112.805 81.7993 112.804C82.1577 112.78 82.5408 112.756 82.9165 112.748Z" fill="#FDFDFD" stroke="#0089F1"/>
<path d="M96.8364 123.834C97.387 123.888 97.3587 123.904 97.8527 124.171C98.267 124.663 98.2369 124.875 98.3201 125.511L98.0102 125.529C97.3074 125.106 97.0507 124.59 96.8364 123.834Z" fill="#FDFDFD"/>
<path d="M180.466 39.7451C181.08 39.8051 181.107 39.7763 181.677 40.0622C182.272 40.8232 182.008 48.8184 182.001 50.4238C183.954 50.4118 190.051 50.1809 191.524 50.7607C192.158 51.5712 191.939 53.8587 191.921 55.01C192.85 54.9704 194.184 54.8069 194.961 55.2051C195.734 56.5801 195.432 64.4772 195.425 66.5268C199.121 69.0625 202.972 71.4986 206.612 74.1041L206.621 112.616C207.508 112.605 210.22 112.527 209.909 114.02C209.057 114.801 201.315 114.532 199.644 114.533L181.295 114.539C177.849 114.543 154.06 114.856 152.776 114.298C152.381 114.127 152.367 114.071 152.229 113.692C152.721 112.39 154.391 112.583 155.485 112.618L155.478 73.984C158.477 71.6762 163.337 68.8137 166.703 66.4626C166.69 64.3341 166.364 57.3918 167.092 55.203C167.235 54.7751 169.316 54.873 169.919 54.8817C169.9 53.8004 169.698 51.5486 170.305 50.7623C171.778 50.1845 178.175 50.4173 180.119 50.4286C180.156 48.1567 179.641 41.3353 180.466 39.7451Z" fill="#0089F1"/>
<path d="M168.725 56.8691L193.35 56.873L193.38 112.615C192.031 112.581 190.604 112.603 189.25 112.601C189.184 109.496 189.172 106.391 189.211 103.286C190.105 103.306 191.241 103.461 191.898 102.959C192.348 101.648 192.302 99.0195 191.937 97.701C191.626 97.2434 191.346 97.2305 190.802 97.061L190.593 96.9975C190.128 96.3279 190.386 89.9659 190.385 88.6885L190.377 70.1233C190.377 67.9361 190.429 65.72 190.282 63.5427C190.207 62.4579 187.624 62.6929 186.863 62.7143C185.81 62.7442 184.356 62.5686 183.389 62.8508C183.057 63.1961 182.842 63.3935 182.842 63.968C182.839 66.3379 182.858 68.8383 182.865 71.1987C182.897 76.5878 182.899 81.9773 182.869 87.3664C182.844 90.5829 182.94 93.8979 182.947 97.1368L178.977 97.1294C178.993 93.5476 179.224 63.8449 178.726 63.027C177.329 62.4363 173.261 62.6989 171.628 62.8159C171.485 66.7685 171.681 72.3468 171.586 76.0956C171.527 78.3763 171.82 96.3523 171.326 97.0378C169.341 97.5977 169.812 98.2557 169.714 100.139C169.539 103.546 170.143 103.357 173.213 103.28C173.16 106.359 173.206 109.539 173.209 112.625C171.758 112.57 170.152 112.595 168.688 112.587L168.677 74.6224C168.677 68.7972 168.585 62.6741 168.725 56.8691Z" fill="#FDFDFD"/>
<path d="M166.495 69.0146C166.974 69.6871 166.706 108.631 166.704 112.647C163.921 112.498 160.426 112.588 157.574 112.574C157.217 111.999 157.39 78.7132 157.394 75.0268C160.439 73.0408 163.473 71.0367 166.495 69.0146Z" fill="#FDFDFD"/>
<path d="M159.738 81.9406C161.468 81.831 163.392 81.9043 165.136 81.9491C165.166 83.3588 165.29 86.8983 165.014 88.1404C163.169 88.2183 161.514 88.193 159.672 88.1622C159.582 86.8276 159.511 83.196 159.738 81.9406Z" fill="#0089F1"/>
<path d="M161.358 83.4375L163.509 83.5296C163.537 84.631 163.555 85.439 163.472 86.5408L161.255 86.5393C161.245 85.5084 161.183 84.4451 161.358 83.4375Z" fill="#FDFDFD"/>
<path d="M159.863 91.3252C163.055 91.3818 165.578 90.0984 165.176 94.5162C165.077 95.6228 165.265 96.42 164.927 97.5804C161.984 97.5335 159.157 98.7864 159.561 94.6418C159.672 93.4848 159.438 92.5078 159.863 91.3252Z" fill="#0089F1"/>
<path d="M161.264 92.9003C161.951 92.8941 162.717 92.7631 163.268 93.1118C163.751 93.8007 163.549 95.0246 163.516 95.9409L161.257 95.9343L161.264 92.9003Z" fill="#FDFDFD"/>
<path d="M159.867 100.908C163.029 100.888 165.579 99.7176 165.17 104.039C165.067 105.121 165.253 105.951 164.948 107.117C161.397 107.214 159.132 108.218 159.568 103.685C159.667 102.669 159.474 101.965 159.867 100.908Z" fill="#0089F1"/>
<path d="M161.26 102.474L163.512 102.492L163.498 105.502L161.259 105.501L161.26 102.474Z" fill="#FDFDFD"/>
<path d="M159.635 77.1516C161.232 77.1443 163.631 76.7777 164.932 77.3991C165.297 77.9717 165.177 77.8376 165.162 78.6506C163.553 78.6363 161.177 79.0182 159.862 78.3851C159.483 77.8175 159.603 77.9841 159.635 77.1516Z" fill="#0089F1"/>
<path d="M195.466 68.9917C198.204 70.5435 201.761 73.205 204.711 74.9966L204.706 112.641C201.953 112.487 198.249 112.595 195.423 112.588L195.416 83.9379C195.412 79.7697 195.193 73.0085 195.466 68.9917Z" fill="#FDFDFD"/>
<path d="M197.08 81.9446C198.771 81.8557 200.653 81.9065 202.359 81.917C202.379 84.0215 202.407 86.0869 202.338 88.1915C200.569 88.2069 198.769 88.1773 196.997 88.1664C196.963 86.6296 196.862 83.3983 197.08 81.9446Z" fill="#0089F1"/>
<path d="M198.617 83.4807C199.563 83.4602 199.965 83.3346 200.698 83.8224C201.037 84.5044 200.878 85.7021 200.848 86.5287L198.608 86.5517L198.617 83.4807Z" fill="#FDFDFD"/>
<path d="M197.199 100.903C198.84 100.841 200.711 100.904 202.37 100.922C202.386 102.242 202.498 106.089 202.222 107.166C199.065 107.107 196.53 108.37 196.946 103.955C197.045 102.899 196.816 101.988 197.199 100.903Z" fill="#0089F1"/>
<path d="M198.557 102.488L200.858 102.507V105.502L198.549 105.503C198.537 104.498 198.539 103.493 198.557 102.488Z" fill="#FDFDFD"/>
<path d="M197.172 91.3286L202.358 91.3387C202.384 92.6742 202.513 96.4711 202.228 97.5879C200.49 97.6113 198.749 97.5962 197.011 97.5429C196.991 96.1483 196.864 92.4814 197.172 91.3286Z" fill="#0089F1"/>
<path d="M198.583 92.9243C199.514 92.8813 199.957 92.7513 200.695 93.223C201.044 93.8857 200.888 95.1133 200.864 95.932L198.519 95.9291C198.502 94.8361 198.514 94.0144 198.583 92.9243Z" fill="#FDFDFD"/>
<path d="M196.847 77.1603C198.516 77.1028 200.536 76.7981 202.052 77.3335C202.523 77.8805 202.369 77.7465 202.397 78.6677C200.765 78.6217 198.341 79.0243 197.054 78.3748C196.7 77.821 196.818 77.9537 196.847 77.1603Z" fill="#0089F1"/>
<path d="M184.638 64.3496H188.665L188.657 86.4711C188.657 89.7272 188.658 93.1472 188.672 96.4142C188.674 96.9436 188.6 96.8974 188.295 97.1332L184.464 97.1366C184.659 94.3134 184.588 90.4731 184.593 87.598L184.602 73.0528C184.595 70.9492 184.34 66.2341 184.638 64.3496Z" fill="#FDFDFD"/>
<path d="M173.485 64.3496L177.324 64.3586L177.349 87.1368C177.352 88.6607 177.471 95.9645 177.265 97.1289L173.275 97.1141C173.273 94.1611 173.184 64.9376 173.485 64.3496Z" fill="#FDFDFD"/>
<path d="M175.087 103.278L180.33 103.289L180.328 112.657C178.777 112.546 176.663 112.604 175.07 112.602C175.018 109.494 175.024 106.386 175.087 103.278Z" fill="#FDFDFD"/>
<path d="M182.136 103.29L187.245 103.287C187.251 106.161 187.362 109.785 187.199 112.589L182.017 112.6C182.014 111.117 181.87 104.458 182.136 103.29Z" fill="#FDFDFD"/>
<path d="M171.582 98.9951L190.48 99.0006L190.484 101.505C184.801 101.273 177.428 101.482 171.568 101.473L171.582 98.9951Z" fill="#FDFDFD"/>
<path d="M172.159 52.4819C178.092 52.5216 184.025 52.529 189.958 52.5041C189.979 53.3757 190.027 53.9953 189.882 54.8621L171.913 54.8639L171.91 54.1708C171.903 53.503 171.786 53.0001 172.159 52.4819Z" fill="#FDFDFD"/>
<path d="M144.802 0.068851C146.925 0.0656642 164.358 -0.198311 164.898 0.329109C165.559 0.970723 165.507 2.55033 165.518 3.40864C165.534 4.54404 165.932 7.29781 164.516 7.66589C164.093 7.77584 163.746 7.77229 163.425 8.10089C163.155 9.35703 163.309 13.3687 163.326 14.8819C169.569 21.1187 176.256 27.0806 182.403 33.4351C184.63 35.7385 187.76 38.3306 189.57 40.8804C191.347 43.3854 188.364 46.3658 185.271 45.3535C185.06 44.8871 185.08 43.9518 185.384 43.5262C185.859 43.478 186.333 43.4362 186.81 43.401C187.401 42.9908 187.194 43.2541 187.451 42.5827C187.242 40.9664 186.255 41.2246 185.004 41.2761L184.623 38.7762C183.915 37.9453 182.159 36.4256 181.289 35.6308C164.353 35.7999 147.419 35.847 130.483 35.7719C131.8 36.7845 132.942 37.8938 134.092 39.0862L177.295 39.0807C176.961 39.9306 176.909 40.396 176.764 41.2796L136.426 41.2977C136.782 41.729 137.506 42.5533 137.479 43.0806C137.463 43.4104 137.455 43.2955 137.614 43.6074C139.923 43.8923 146.882 43.6558 149.699 43.6574C158.753 43.7066 167.807 43.6747 176.86 43.5614L176.872 45.8432L135.273 45.8878C132.496 48.7444 132.129 48.1421 129.459 45.4202C129.557 49.1702 129.434 53.2166 129.426 57.0026L129.41 79.3479L138.848 79.3312L152.518 79.3351L152.431 81.577C147.651 81.7598 108.127 81.8584 106.747 81.3428C106.275 81.1661 106.152 81.0045 105.932 80.5654C106.107 79.8094 105.927 80.1154 106.451 79.5915C108.563 78.9362 124.028 79.3773 127.227 79.3886L127.241 43.4311C123.313 39.2411 118.811 35.0855 114.7 31.0209L108.305 24.779C106.814 23.3102 105.464 21.8209 103.86 20.4732C101.414 22.5691 98.1493 25.9567 95.7872 28.268L80.5644 43.1841C80.5483 50.5491 80.6455 57.9584 80.597 65.3253C80.5908 66.2695 80.6012 67.1163 79.9347 67.7324C79.1463 67.7965 78.3253 67.2328 78.3262 66.4341C78.3283 64.5661 78.3701 62.6972 78.3698 60.823L78.3554 45.2756C77.1205 46.5515 75.707 49.0654 73.8609 47.0618C72.9268 46.048 70.598 44.0348 70.5466 42.5939C71.3178 41.2653 79.6188 33.3434 81.3055 31.7673C88.6575 24.8974 96.0297 17.2258 103.535 10.5877L146.162 10.5891C146.178 9.78088 146.383 8.19809 145.839 7.68129C145.22 7.64925 145.037 7.67757 144.466 7.409C143.722 6.542 144.122 2.64469 144.111 1.41883C144.104 0.670279 144.317 0.490574 144.802 0.068851Z" fill="#0089F1"/>
<path d="M103.878 13.1895C104.717 13.6087 108.465 17.5166 109.397 18.4576C117.617 26.7604 126.652 34.603 134.64 43.096C134.057 43.7644 133.259 44.5563 132.634 45.2057C126.104 38.9865 119.647 32.6937 113.261 26.3284C111.406 24.5124 105.851 18.8606 103.987 17.6427C103.741 17.665 103.347 17.7264 103.163 17.893C101.019 19.8368 98.7225 22.1519 96.6688 24.1567L82.0461 38.504C79.9564 40.5687 77.468 43.3143 75.3573 45.1698C74.702 44.4905 73.874 43.7398 73.1807 43.0787C75.4012 40.412 81.3582 34.9544 84.0778 32.3217C90.6246 25.8895 97.2249 19.5119 103.878 13.1895Z" fill="#FDFDFD"/>
<path d="M126.464 31.4022C136.044 31.1965 145.746 31.5047 155.336 31.3955C157.942 31.6088 160.122 31.6933 162.739 31.5564C167.267 31.3199 172.634 31.2491 177.125 31.481C178.154 32.6043 178.828 33.2051 179.997 34.185C178.722 34.5646 168.452 34.3325 166.649 34.3321L129.015 34.3068C128.388 33.6257 126.851 32.1162 126.464 31.4022Z" fill="#FDFDFD"/>
<path d="M107.424 12.9774C111.361 12.8246 116.407 12.968 120.406 12.9739L146.19 13.0231L146.199 16.0934C146.104 16.1823 146.01 16.271 145.914 16.3599C138.319 16.4696 116.961 16.424 110.869 16.424C109.785 15.3806 108.379 14.0985 107.424 12.9774Z" fill="#FDFDFD"/>
<path d="M112.57 17.9568C123.541 17.7427 135.206 17.9451 146.234 17.9428L146.278 21.4035L115.954 21.3929C115.051 20.5723 113.15 18.9464 112.57 17.9568Z" fill="#FDFDFD"/>
<path d="M121.744 26.8001C131.57 26.5781 142.115 26.8024 152.031 26.7796C152.872 27.4651 155.414 29.2984 155.708 30.0363C145.38 30.0847 135.052 30.0778 124.725 30.0154C124.003 29.3722 122.001 27.6689 121.744 26.8001Z" fill="#FDFDFD"/>
<path d="M117.525 22.7259C126.989 22.6882 137.671 22.4982 147.084 22.7579C148.077 23.5132 149.055 24.2894 150.014 25.0861L150.032 25.4506C146.806 25.3426 143.281 25.4547 140.016 25.4565L120.058 25.4559C119.43 24.8823 117.696 23.4155 117.525 22.7259Z" fill="#FDFDFD"/>
<path d="M163.342 26.7148L172.295 26.7674C173.243 27.5362 174.916 29.038 175.511 30.0766C171.522 30.1641 167.317 30.0938 163.31 30.0796L163.342 26.7148Z" fill="#FDFDFD"/>
<path d="M148.706 12.1455L157.316 12.1708L157.31 15.3635L148.708 15.3785L148.706 12.1455Z" fill="#FDFDFD"/>
<path d="M154.37 16.7578L160.947 16.7714C160.963 17.8902 160.949 19.0091 160.904 20.1272L154.465 20.1256C154.449 19.0137 154.401 17.8721 154.37 16.7578Z" fill="#FDFDFD"/>
<path d="M149.593 21.4821C152.163 21.4401 154.736 21.443 157.307 21.4909L157.301 24.8366L153.406 24.8295C152.505 24.0014 149.874 22.2843 149.593 21.4821Z" fill="#FDFDFD"/>
<path d="M154.548 7.81738L160.851 7.81898L160.849 10.762L154.543 10.7652L154.548 7.81738Z" fill="#FDFDFD"/>
<path d="M148.471 16.772L153.054 16.7844L153.047 20.0951C151.719 20.1766 149.855 20.1196 148.485 20.1196L148.471 16.772Z" fill="#FDFDFD"/>
<path d="M163.372 22.6919L168.211 22.7066C168.921 23.9018 169.714 24.261 170.405 25.3366L163.355 25.323L163.372 22.6919Z" fill="#FDFDFD"/>
<path d="M155.421 26.0962C157.264 26.1266 159.105 26.1706 160.945 26.2276L160.952 29.5305L158.709 29.525C157.81 28.4801 156.004 27.0292 155.421 26.0962Z" fill="#FDFDFD"/>
<path d="M148.709 7.81152L153.095 7.81772L153.082 10.7593L148.706 10.7523L148.709 7.81152Z" fill="#FDFDFD"/>
<path d="M158.626 21.6016L160.934 21.6067L160.933 24.7581L158.658 24.7494L158.626 21.6016Z" fill="#FDFDFD"/>
<path d="M158.722 12.0928L160.887 12.1023C160.894 13.1743 160.933 14.3074 160.832 15.3706L158.661 15.3547C158.649 14.2159 158.626 13.2299 158.722 12.0928Z" fill="#FDFDFD"/>
<path d="M163.415 18.1304C164.001 18.6799 166.368 20.9153 166.469 21.5128L163.399 21.5153C163.367 20.3114 163.365 19.3327 163.415 18.1304Z" fill="#FDFDFD"/>
<path d="M180.902 118.723C185.459 118.234 188.435 120.885 190.107 124.799C191.758 124.803 199.942 124.385 200.961 125.167C201.347 125.465 201.515 125.984 201.581 126.448C201.742 127.575 201.565 128.898 201.546 130.043C201.53 132.221 201.528 134.4 201.537 136.578C202.549 136.98 204.129 138.242 204.824 139.073C206.289 140.822 203.288 142.844 201.971 143.685L195.8 143.683L195.793 145.937L197.281 145.923C198.341 145.914 200.738 145.731 201.455 146.438C201.659 148.973 201.737 173.234 201.14 174.154C199.894 174.661 187.458 174.445 185.238 174.443L185.243 194.784C188.926 194.789 191.22 194.653 191.658 199.068C193.538 199.091 195.422 198.999 197.295 199.012C198.444 199.019 199.076 198.912 199.846 199.691C199.929 200.292 199.973 200.005 199.651 200.571C198.708 201.225 193.961 200.941 192.592 200.927C189.439 200.908 186.286 200.918 183.135 200.963C177.248 200.957 171.299 200.991 165.409 200.952C164.651 200.947 164.355 200.872 163.9 200.371C163.814 199.704 163.775 200.022 164.058 199.382C164.945 198.813 170.501 199.063 171.922 199.068C172.533 194.619 174.38 194.747 178.333 194.787L178.326 174.439C174.445 174.446 165.642 174.67 162.238 174.248C162.029 172.021 162.043 147.208 162.417 146.282C163.552 145.698 166.476 145.901 167.875 145.915L167.882 143.683C165.834 143.665 161.156 143.929 159.129 143.534C158.316 143.377 158.297 138.18 158.711 137.235C159.607 136.521 160.991 136.739 162.176 136.766C162.171 134.955 161.783 126.285 162.493 125.387C162.813 124.983 163.336 124.829 163.824 124.762C165.012 124.596 166.36 124.76 167.563 124.778C169.566 124.808 171.574 124.789 173.576 124.787C175.178 121.317 176.752 119.256 180.902 118.723Z" fill="#0089F1"/>
<path d="M164.175 147.79L199.618 147.795L199.621 172.464L164.077 172.463L164.058 155.418C164.058 154.014 163.964 148.813 164.175 147.79Z" fill="#FDFDFD"/>
<path d="M180.273 153.201C181.914 152.627 183.709 153.497 184.276 155.142C184.842 156.784 183.964 158.574 182.317 159.134C180.682 159.69 178.906 158.819 178.343 157.185C177.78 155.552 178.644 153.771 180.273 153.201Z" fill="#0089F1"/>
<path d="M180.728 153.968C183.44 153.851 183.659 156.793 181.877 158.304C179.07 158.35 178.812 155.586 180.728 153.968Z" fill="#FDFDFD"/>
<path d="M185.398 153.17C186.779 153.131 190.077 152.878 190.159 154.813C189.824 155.594 189.5 155.686 189.006 156.344C189.578 157.237 190.051 157.895 190.024 158.961C189.578 159.237 189.397 159.108 188.751 159.073C188.578 158.28 188.289 156.849 187.471 156.504C186.404 157.239 186.899 159.186 185.563 159.119C185.278 158.581 185.396 154.089 185.398 153.17Z" fill="#0089F1"/>
<path d="M186.636 153.895C187.401 153.895 188.006 153.817 188.543 154.439C188.688 155.03 188.587 155.165 188.383 155.737C187.689 155.891 187.418 155.995 186.831 155.763C186.498 155.218 186.611 154.557 186.636 153.895Z" fill="#FDFDFD"/>
<path d="M178.317 161.065C179.046 161.042 179.218 161.035 179.929 161.152C180.595 162.065 182.017 166.052 181.579 167.116L181.155 167.164C180.404 166.769 180.436 166.465 180.119 165.562C179.299 165.55 178.692 165.422 178.106 165.826C177.929 166.392 177.904 166.536 177.582 167.056C176.969 167.278 177.267 167.27 176.659 167.115L176.472 166.762C176.84 165.252 177.801 162.605 178.317 161.065Z" fill="#0089F1"/>
<path d="M179.064 162.255C179.632 162.712 180.057 164.22 179.644 164.902C178.899 164.783 178.977 164.918 178.548 164.487C178.409 163.816 178.823 162.942 179.064 162.255Z" fill="#FDFDFD"/>
<path d="M188.105 161.057C189.304 161.062 190.511 160.983 191.696 161.082C192.066 161.462 191.961 161.236 191.979 161.801C191.419 162.58 190.446 161.735 189.5 162.33C188.927 164.472 191.009 163.008 191.866 163.798L191.834 164.256C191.058 165.014 190.253 164.132 189.247 164.878C189.341 165.396 189.368 165.501 189.548 165.995C190.52 166.522 191.699 165.485 192.213 166.673L192.08 166.926C191.329 167.229 188.969 167.135 188.029 167.137C188.213 165.334 188.141 162.897 188.105 161.057Z" fill="#0089F1"/>
<path d="M172.854 161.074C173.798 161.044 174.605 160.828 175.259 161.568L175.195 161.975C174.616 162.457 173.074 161.602 172.714 162.556C173.269 163.468 174.726 163.755 175.637 165.136C175.827 166.412 175.074 166.722 174.044 167.158C173.108 167.172 172.079 167.313 171.385 166.738L171.521 166.255C172.598 165.739 173.573 166.881 174.338 165.677C173.794 164.304 168.883 163.401 172.854 161.074Z" fill="#0089F1"/>
<path d="M173.506 153.147L175.417 153.118C176.174 153.106 177.037 153.102 177.458 153.766C176.651 154.324 175.948 153.814 174.972 154.234C174.052 156.197 175.944 155.558 176.845 155.857C177.093 155.94 177.123 156.293 177.23 156.594C176.674 156.695 175.448 156.686 174.834 156.698C174.846 157.39 174.976 158.561 174.599 159.086C173.843 159.134 174.138 159.248 173.609 158.934C173.363 157.828 173.492 154.483 173.506 153.147Z" fill="#0089F1"/>
<path d="M183.097 161.057C183.403 161.062 184.099 161.034 184.223 161.239C184.774 162.151 184.503 164.968 184.48 166.126C185.809 166.075 186.776 165.685 187.185 167.064C185.981 167.142 184.336 167.112 183.097 167.128V161.057Z" fill="#0089F1"/>
<path d="M181.327 120.511C185.585 120.426 187.468 122.909 188.552 126.602C191.788 126.774 196.294 126.651 199.632 126.648L199.624 136.754C194.263 136.585 188.115 136.736 182.692 136.738L164.006 136.723C164.206 134.17 164.051 129.383 164.013 126.65C166.172 126.628 172.944 126.858 174.615 126.497C176.686 125.037 175.084 121.68 181.327 120.511Z" fill="#FDFDFD"/>
<path d="M168.581 128.246C169.445 128.161 171.129 128.77 172.021 129.043C172.06 132.35 172.386 133.253 169.454 135.218C169.297 135.268 169.135 135.344 168.967 135.318C165.848 134.811 165.906 131.316 165.918 129.05C166.724 128.77 167.747 128.494 168.581 128.246Z" fill="#0089F1"/>
<path d="M168.773 128.628C169.725 128.727 170.642 129.083 171.563 129.382C171.598 132.511 171.812 133.169 169.15 134.925C166.135 134.157 166.299 131.847 166.354 129.329L168.773 128.628Z" fill="#FDFDFD"/>
<path d="M160.465 138.682L201.448 138.702C201.972 139.123 202.608 139.532 202.875 140.125C202.746 140.775 202.705 140.621 202.062 141.17C201.745 141.465 201.544 141.626 201.081 141.635C196.717 141.718 192.21 141.681 187.858 141.68L160.435 141.669C160.435 140.677 160.455 139.674 160.465 138.682Z" fill="#FDFDFD"/>
<path d="M180.334 174.432L183.34 174.436L183.333 194.787H180.33L180.334 174.432Z" fill="#FDFDFD"/>
<path d="M169.773 143.683H193.927L193.916 145.913L169.773 145.92V143.683Z" fill="#FDFDFD"/>
<path d="M174.992 196.823C178.542 196.335 185.132 196.678 188.722 196.979C189.172 197.016 189.995 198.174 189.446 199.004L188.889 199.068C185.073 199.077 177.708 199.311 174.171 198.996C173.447 198.243 174.364 197.33 174.992 196.823Z" fill="#FDFDFD"/>
<path d="M79.5308 70.4811C82.0448 70.1558 84.9484 71.0196 87.0301 72.4277C90.0167 74.4549 91.7905 77.8426 91.7553 81.4522C91.7537 82.3497 91.4302 83.6439 91.5387 84.2207C93.4308 85.318 93.1955 82.0029 95.7666 81.6284C97.4282 81.3864 97.8448 81.9055 99.3116 82.8922C101.894 81.4372 103.298 81.929 104.796 84.4225L135.222 84.308C138.621 84.3085 145.418 84.1039 148.596 84.4905C154.007 85.1488 155.03 94.7787 146.562 94.7172C146.56 96.7632 146.81 102.193 146.424 103.872C145.561 104.901 139.884 104.849 138.874 104.281C138.175 103.252 138.412 101.009 138.441 99.6749L135.627 99.6719C135.654 100.784 135.826 103.081 135.44 103.982C134.069 104.897 130.02 105.001 128.595 104.176C128.188 103.728 128.241 103.433 128.2 102.82C128.191 100.121 128.214 97.4228 128.269 94.725C120.631 94.8683 112.572 94.7436 104.902 94.739C102.929 96.8529 101.99 97.3935 99.2512 96.4116C93.5726 100.01 94.292 94.5958 91.9755 94.5666C90.9823 95.3463 91.9587 97.9317 91.598 99.333C90.4738 103.701 88.0084 106.911 83.4256 108.035C80.6099 108.745 77.6272 108.297 75.1445 106.791C72.2903 105.033 70.6073 102.274 69.863 99.0614C68.4047 98.9727 66.8644 98.423 65.6176 97.6624C63.423 96.3025 61.8712 94.1133 61.3147 91.5924C60.3171 87.2223 62.6493 82.557 66.8093 80.8166C67.8686 80.3733 68.9767 80.1619 70.0951 79.9125C70.6643 74.6556 74.4763 71.3537 79.5308 70.4811Z" fill="#0089F1"/>
<path d="M80.4868 72.6328C82.8303 72.6608 85.0804 73.5563 86.8023 75.1462C88.5829 76.8031 89.5993 79.1224 89.6106 81.5547C89.6416 84.3692 88.3623 86.131 86.5245 88.2061C86.216 88.5545 85.9472 88.6275 85.5529 88.6167L85.2514 88.2185C85.2273 87.3683 85.1608 87.1885 84.8909 86.368L84.8153 86.1432C85.7015 85.1822 86.4932 84.0698 86.8168 82.7883C87.6049 79.6672 85.2155 76.1059 82.1143 75.456C80.4391 75.1182 78.6991 75.4962 77.315 76.4983C75.9138 77.5042 74.9861 79.0405 74.7483 80.7489C74.4146 83.2301 75.5213 84.7732 76.931 86.5564C75.4416 89.9035 76.9403 89.6262 76.519 92.7408C76.465 93.1406 75.1637 94.6393 74.8995 95.4227C74.4259 96.8268 74.6784 98.8641 75.2706 100.148C75.9675 101.658 77.2702 102.803 78.857 103.3C82.8091 104.565 85.8064 102.148 86.8615 98.4144C86.8886 95.5243 86.5284 94.7244 84.7617 92.6121C85.4003 91.3683 85.0652 91.1226 85.5264 90.2243C85.8397 90.2034 85.8438 90.1306 86.1147 90.353C89.5791 93.1974 90.7577 98.3783 88.193 102.182C86.8278 104.229 84.6781 105.622 82.2519 106.031C79.8572 106.433 77.7201 105.836 75.7529 104.48C72.6613 102.349 72.443 100.144 71.8597 96.8081C71.2349 96.7987 70.3826 96.8412 69.8109 96.7512C60.7587 95.3255 61.2799 82.4697 70.7009 82.297C72.5172 82.3075 72.1907 80.3324 72.5369 78.9898C73.5855 74.9229 76.5588 73.1475 80.4868 72.6328Z" fill="#FDFDFD"/>
<path d="M69.4081 85.0575C71.8456 84.4303 74.3323 85.8898 74.973 88.324C75.6137 90.7582 74.168 93.2528 71.7373 93.9068C69.2875 94.5661 66.7692 93.1064 66.1235 90.6532C65.4778 88.1999 66.9512 85.6898 69.4081 85.0575Z" fill="#0089F1"/>
<path d="M69.9619 87.1817C71.2421 86.8323 72.5636 87.5851 72.9159 88.8644C73.268 90.1439 72.5181 91.467 71.2393 91.8218C69.9569 92.1776 68.6291 91.4248 68.2759 90.1418C67.9227 88.8585 68.6781 87.5325 69.9619 87.1817Z" fill="#FDFDFD"/>
<path d="M104.982 86.7622L134.052 86.704C138.386 86.7052 144.331 86.5351 148.564 86.803C149.8 87.5793 150.825 88.6694 150.639 90.3368C150.358 92.845 145.985 91.9419 144.712 92.8971C144.103 94.2927 144.404 100.379 144.393 102.389C142.961 102.42 142.161 102.43 140.75 102.27C140.737 101.427 140.891 98.4234 140.413 97.9963C139.241 96.9466 134.824 96.9555 133.705 98.0114C133.316 99.0972 133.494 101.198 133.53 102.458L130.481 102.476C130.495 99.9261 130.419 97.2968 130.377 94.7408C131.786 94.772 134.677 95.1758 135.463 93.9298C135.238 91.7964 128.631 92.524 126.809 92.5401C124.303 92.543 105.856 92.7048 104.992 92.2317C104.682 91.6237 104.774 90.8472 104.78 90.1417L137.06 90.1274C139.015 90.1226 146.824 90.3233 148.033 90.0502C148.446 89.6049 148.341 89.866 148.318 89.2265C147.435 88.3358 145.319 88.6598 144.052 88.6678L137.31 88.671L114.032 88.6706C112.132 88.6708 106.695 88.7961 105.17 88.5785C104.878 88.0927 104.972 87.3647 104.982 86.7622Z" fill="#FDFDFD"/>
<path d="M140.864 92.4585C141.514 92.5771 141.971 92.7405 142.346 93.2795C142.44 94.0413 142.419 93.7913 142.1 94.5813C141.48 94.7565 141.222 94.6417 140.802 94.2375C140.576 93.4801 140.691 93.2665 140.864 92.4585Z" fill="#0089F1"/>
<path d="M80.9238 77.5933C82.518 77.7861 84.2929 78.6555 84.5342 80.4147C84.8959 83.0507 83.3619 84.2596 82.0054 86.1805C82.0865 87.1635 82.8706 87.9504 83.1902 88.9515C83.6169 90.2885 82.7062 90.9785 82.2708 92.1082C81.4846 94.1488 84.0411 94.649 84.6076 96.3973C84.9502 97.455 84.7094 98.4919 84.2273 99.4574C83.5948 100.724 82.5194 101.09 81.2833 101.46C79.65 101.443 77.4152 100.739 77.0372 98.8924C76.4991 96.2643 78.2804 94.7803 79.6211 92.8227C79.4152 91.4407 78.3278 91.0036 78.367 89.2423C78.1842 88.4841 79.9538 86.604 79.5519 85.9737C78.564 84.4246 77.2705 83.5976 76.9986 81.6292C76.6455 79.0728 78.8048 77.964 80.9238 77.5933Z" fill="#FDFDFD"/>
<path d="M95.9003 83.6938C96.6573 83.7723 96.7662 83.7273 97.328 84.1921C98.0611 85.4652 97.74 92.7871 97.5821 94.5487C97.5674 94.7141 97.1435 95.1926 97.0015 95.3431C96.3512 95.2951 96.3149 95.3376 95.7518 94.9766C95.42 94.5409 95.3231 94.2435 95.3199 93.6132C95.3045 90.6261 95.2011 87.5225 95.364 84.5438C95.3759 84.3263 95.7553 83.8638 95.9003 83.6938Z" fill="#FDFDFD"/>
<path d="M89.9361 86.6147L92.8926 86.6819C92.8854 88.5398 93.0171 90.6121 93.0351 92.5268L90.736 92.425L90.0785 92.3806C89.2449 91.9431 88.0901 90.4315 87.4387 89.6566C88.3016 88.4436 88.9319 87.7285 89.9361 86.6147Z" fill="#FDFDFD"/>
<path d="M101.072 84.3789L101.834 84.4876C102.34 84.9304 102.63 85.6127 102.608 86.2726C102.528 88.6092 103.249 93.0175 101.808 94.8668C99.5339 94.2294 100.151 91.6511 100.098 89.6034C100.053 87.8818 99.8319 85.609 101.072 84.3789Z" fill="#FDFDFD"/>
<path d="M32.6448 114.565L33.0807 114.771C33.2661 115.077 33.9608 123.945 33.9332 124.963L36.5455 124.969C36.5522 125.134 36.56 125.3 36.569 125.465C36.6096 126.193 36.6009 126.974 37.199 127.304C38.5415 128.044 37.265 131.233 37.8914 132.533C38.0111 132.781 38.5369 132.813 38.9135 132.903C39.6165 133.772 38.9924 150.059 39.2254 152.123C39.3821 153.513 38.8671 157.943 39.4972 159.224C40.0037 159.387 39.763 159.393 40.2435 159.247C40.5372 158.743 40.4253 145.919 40.4246 144.014L50.1447 147.794C50.138 150.161 50.1267 152.544 50.1417 154.912C50.1477 155.85 49.9833 158.746 50.4367 159.29L50.9253 159.309L51.2132 159.024C51.5186 158.162 51.3437 148.651 51.3483 147.129L49.7363 146.428C49.7467 144.751 50.0725 136.531 49.2747 135.624L48.9679 135.707C48.1423 137.432 48.9658 143.356 48.4849 145.732L48.2633 145.873C48.0845 145.803 47.866 145.716 47.6078 145.611C46.6892 143.846 47.9405 136.899 46.8579 135.686L46.5785 135.732C45.8257 136.729 46.1334 143.253 46.1391 145.001C45.5297 144.825 44.8229 144.53 44.2227 144.296L44.2272 134.259C47.4735 132.662 50.8265 130.88 54.0541 129.219C54.2283 136.837 53.8909 151.011 54.2223 159.106C54.2308 159.313 54.3126 159.301 54.6419 159.428L54.9944 159.198C55.4527 158.483 55.2467 155.728 55.2458 154.688L55.2391 143.396C56.4166 143.373 58.4096 143.071 59.1668 144.076C59.3286 146.096 60.2882 145.696 62.0796 145.679C62.167 148.625 62.0537 151.633 62.0714 154.582C62.0792 155.899 61.9684 157.912 62.1548 159.173C62.6916 159.501 63.4338 159.41 64.0905 159.41C64.6168 159.373 64.5791 159.373 65.0681 159.577C65.3659 160.081 65.3259 159.823 65.2273 160.372C65.0713 160.543 64.7604 160.866 64.5138 160.867C43.9773 161 23.4057 160.899 2.85739 160.924C2.12725 160.924 0.887222 160.954 0.261896 160.666C-0.0677631 160.118 -0.0134142 160.4 0.0407618 159.805C0.744342 159.136 2.36343 159.341 3.36037 159.366C3.36905 155.372 3.41721 151.378 3.5052 147.384L11.0854 147.412C11.1486 150.13 10.9767 156.321 11.2483 159.178C11.2633 159.336 11.604 159.322 11.8419 159.355C12.125 159.235 12.2858 159.23 12.2978 158.835C12.4087 155.246 12.219 151.165 12.3028 147.628C12.3421 145.967 12.0415 139.507 12.5046 138.374C12.836 138.198 12.8939 138.175 13.2477 138.094L13.5318 138.032C13.8665 137.589 13.7349 136.515 13.734 135.876C14.0322 135.429 13.9426 135.573 14.6409 135.405C15.1732 134.797 14.7558 134.771 15.0348 133.661C15.5728 133.4 16.4977 133.496 17.1639 133.498C17.165 131.852 16.9555 128.75 17.5665 127.373L17.8155 127.386C18.4266 128.883 18.2397 131.783 18.2246 133.487C18.7827 133.505 19.3409 133.517 19.8993 133.524C20.5305 133.964 20.1282 134.351 20.6374 135.415L21.4065 135.594C21.691 136.138 21.5508 137.019 21.5556 137.758C22.1113 138.517 22.228 137.74 23.0419 138.528C23.2501 139.818 23.144 142.91 23.1332 144.338C22.5946 144.337 20.6932 144.317 20.5262 144.584C19.9204 145.56 19.5486 150.277 20.8884 150.638L21.1609 150.415C21.3389 149.372 21.2808 146.688 21.2854 145.512L25.3514 145.53L25.3902 154.559C25.3905 155.795 24.9679 158.619 25.8861 159.37C26.7198 159.23 26.5242 158.821 26.5304 157.757C26.5681 151.67 26.536 145.578 26.5552 139.491C26.5585 138.393 26.3907 133.631 26.8825 132.943C27.0647 132.903 27.7026 132.782 27.7585 132.663C28.3389 131.426 27.7461 129.297 28.0823 127.757C29.5058 126.878 29.2395 126.542 29.2123 124.975L31.7709 124.968C31.9958 122.875 32.2105 120.74 32.3934 118.644C32.5113 117.293 32.3121 115.879 32.6448 114.565Z" fill="#0089F1"/>
<path d="M31.0454 129.512C31.6974 129.598 31.661 129.495 32.1241 129.833C32.3095 130.927 32.2059 136.524 32.204 137.896L32.1788 155.843C31.4862 155.82 31.6231 155.928 31.1435 155.59C30.9404 154.484 31.0362 149.04 31.0367 147.703L31.0454 129.512Z" fill="#FDFDFD"/>
<path d="M33.6351 129.492C34.328 129.604 34.2385 129.485 34.6993 129.873C34.882 131.408 34.7654 136.222 34.7643 137.931L34.7331 155.299L34.6462 155.616C34.1802 155.862 34.4238 155.819 33.887 155.727C33.8042 155.605 33.7211 155.485 33.6383 155.364C33.6779 147.998 33.5784 136.521 33.6351 129.492Z" fill="#FDFDFD"/>
<path d="M28.3208 134.684C28.7556 134.723 28.926 134.756 29.3537 134.852C29.7229 135.346 29.6094 153.836 29.4976 155.922C29.2231 155.872 28.9185 155.793 28.6436 155.729C28.0073 154.787 28.3692 137.49 28.3208 134.684Z" fill="#FDFDFD"/>
<path d="M36.3171 134.658L37.1988 134.823C37.2789 134.918 37.3589 135.016 37.4389 135.111C37.4343 140.478 37.6662 150.948 37.4467 155.918C36.7415 155.803 36.8499 155.923 36.3681 155.53C36.1794 153.843 36.2814 150.444 36.2817 148.556L36.3171 134.658Z" fill="#FDFDFD"/>
<path d="M51.1959 135.489C51.9348 135.662 51.6695 135.473 52.1193 135.926C52.3091 138.017 52.1875 141.852 52.1098 144.042C51.381 143.865 51.6422 144.049 51.1847 143.613C51.0032 141.627 51.1098 137.569 51.1959 135.489Z" fill="#FDFDFD"/>
<path d="M42.8714 151.63C44.0959 151.613 47.578 151.119 48.0479 152.239L47.8321 152.724C46.5924 152.748 43.9994 152.919 42.8553 152.519C42.6237 152.438 42.6611 152.294 42.592 152.009L42.8714 151.63Z" fill="#FDFDFD"/>
<path d="M42.7659 154.242C43.7465 154.212 44.7274 154.187 45.7084 154.166C46.6382 154.15 47.397 154.047 48.0296 154.656L47.9836 155.272C46.8804 155.304 43.2811 155.702 42.6487 154.833L42.7659 154.242Z" fill="#FDFDFD"/>
<path d="M42.5791 149.067C43.9354 149.049 47.0734 148.701 48.0279 149.421L48.062 150.083C46.8372 150.113 43.871 150.349 42.8172 149.894C42.6071 149.802 42.6212 149.365 42.5791 149.067Z" fill="#FDFDFD"/>
<path d="M56.891 147.798C57.1255 147.626 57.4347 147.596 57.6976 147.72C57.9605 147.844 58.1354 148.1 58.154 148.389C58.1726 148.679 58.0318 148.955 57.7868 149.111C57.424 149.343 56.9439 149.244 56.7019 148.888C56.46 148.534 56.5436 148.051 56.891 147.798Z" fill="#FDFDFD"/>
<path d="M59.5255 147.795C59.7573 147.616 60.0703 147.579 60.3366 147.703C60.603 147.826 60.7779 148.088 60.7898 148.382C60.8017 148.675 60.6487 148.951 60.3932 149.096C60.0359 149.298 59.5831 149.19 59.3552 148.848C59.1274 148.506 59.2017 148.048 59.5255 147.795Z" fill="#FDFDFD"/>
<path d="M94.9676 50.2613C99.4562 50.0661 104.14 50.3447 108.648 50.2174C109.69 50.188 112.335 50.0885 113.102 50.6898C113.963 52.8582 113.17 64.2499 113.495 67.3555C113.674 69.0562 114.247 68.1892 115.417 69.0238C115.788 69.3177 116.099 70.1556 116.055 70.608C115.691 74.3017 116.609 74.9968 112.778 74.9433C110.435 74.9477 93.1999 75.2992 92.4301 74.6289C91.8057 74.085 91.7078 72.9306 91.6678 72.1577C91.4047 67.0656 94.0903 69.4944 94.2723 67.7108C94.3991 66.4683 94.2826 65.0985 94.2718 63.8448L94.1799 55.7211C94.1632 54.0634 93.8467 51.5154 94.9676 50.2613Z" fill="#0089F1"/>
<path d="M96.4773 61.5102C98.5728 61.4872 100.668 61.4957 102.764 61.5353L102.766 68.4734L96.4521 68.4782C96.4274 66.1555 96.4357 63.8325 96.4773 61.5102Z" fill="#FDFDFD"/>
<path d="M105.097 61.4956C107.158 61.5202 109.219 61.5593 111.279 61.6128C111.285 63.8383 111.334 66.2656 111.231 68.4716L105.059 68.4824C105.066 66.8348 104.931 62.8582 105.097 61.4956Z" fill="#FDFDFD"/>
<path d="M105.048 52.5859L111.236 52.5941C111.339 54.6669 111.267 57.3378 111.267 59.4562L105.027 59.3328L105.048 52.5859Z" fill="#FDFDFD"/>
<path d="M96.5695 52.612C98.5745 52.5633 100.725 52.5982 102.741 52.5957C102.767 53.9459 102.896 58.2782 102.648 59.3996L96.536 59.3899C96.4993 57.3376 96.4429 54.6222 96.5695 52.612Z" fill="#FDFDFD"/>
<path d="M94.131 70.671C96.5701 70.6762 112.455 70.4334 113.533 70.8323C113.834 71.4001 113.739 71.9902 113.718 72.6438L100.71 72.6568C99.4411 72.658 95.2958 72.7508 94.3353 72.4973C94.0409 71.9927 94.1258 71.2859 94.131 70.671Z" fill="#FDFDFD"/>
<path d="M138.499 51.1212C140.847 51.1173 153.585 50.8489 154.564 51.4785C154.759 51.7162 154.998 52.0145 155.005 52.3396C155.115 57.1997 155.021 62.0851 155.039 66.9496C155.049 69.9645 155.765 67.9398 156.742 68.8893C156.475 69.2223 154.472 70.286 153.853 70.6826H137.754C137.717 71.3683 137.656 71.7272 137.809 72.3872C138.28 72.7946 138.119 72.6676 138.892 72.7036C141.546 72.727 150.002 72.4194 152.165 72.71C152.705 73.1545 152.737 74.2542 152.298 74.803C150.576 75.2362 138.078 74.9478 135.67 74.8729C135.463 73.5672 135.16 71.3051 135.456 70.053C135.631 68.1613 137.986 68.827 137.986 67.4586C137.979 62.4 137.895 57.3642 137.947 52.3099C137.95 51.9046 138.269 51.4391 138.499 51.1212Z" fill="#0089F1"/>
<path d="M147.628 61.8442L152.785 61.8731C152.819 64.0764 152.815 66.2803 152.778 68.4836L147.596 68.4801C147.585 66.2681 147.596 64.0561 147.628 61.8442Z" fill="#FDFDFD"/>
<path d="M140.273 61.8555L145.367 61.867C145.376 63.1676 145.48 67.4494 145.27 68.472L140.233 68.5027C140.149 67.1456 140.11 63.1311 140.273 61.8555Z" fill="#FDFDFD"/>
<path d="M147.622 53.314L152.817 53.315C152.831 55.4768 152.825 57.6383 152.799 59.7999L147.615 59.8043L147.622 53.314Z" fill="#FDFDFD"/>
<path d="M140.199 53.3101L145.372 53.3131L145.386 59.8018C143.941 59.8404 141.753 60.0953 140.581 59.376C139.85 58.4364 140.202 54.8856 140.199 53.3101Z" fill="#FDFDFD"/>
<path d="M14.0533 51.7409C17.3028 51.5078 22.5805 51.6545 25.977 51.6538L48.0031 51.6627C49.6298 52.8935 55.9724 59.4584 57.5216 61.1399L57.5108 104.141C57.4716 104.219 57.4325 104.297 57.3934 104.374C56.9136 106.033 53.5805 107.182 52.1093 106.385C51.7456 105.924 51.7837 105.899 51.7217 105.331C52.442 104.164 54.2831 105.428 55.4523 104.455C56.3178 103.09 55.9868 99.9296 55.9875 98.258L55.9992 88.0523C56.0053 80.0261 56.2546 70.0889 55.8724 62.1911C46.2823 61.5695 47.0081 64.353 47.0787 53.2889L32.7977 53.2816L22.1112 53.255C21.0523 53.2502 13.4903 52.8229 13.4632 54.1856C13.1489 69.9983 13.3984 85.8908 13.3463 101.726C13.3439 102.478 13.4905 103.437 13.6948 104.151C14.7117 105.168 20.0488 104.876 21.6312 104.879C25.7387 104.915 29.8463 104.91 33.9538 104.864C35.5698 104.851 38.004 104.71 39.587 105.063C39.882 105.128 39.8264 105.193 39.9924 105.518C39.7508 106.176 39.2882 106.446 38.5754 106.439C32.2247 106.375 25.8707 106.453 19.5197 106.432C17.6599 106.426 15.4482 106.538 13.6413 106.191C12.2093 105.218 11.6986 104.453 11.6964 102.668C11.6786 86.7004 11.6524 70.7275 11.6915 54.7603C11.6957 53.018 12.5472 52.3227 14.0533 51.7409Z" fill="#0089F1"/>
<path d="M48.6344 54.7549C49.3913 55.0015 53.943 59.6753 54.589 60.5066C53.4492 60.6652 52.1284 60.5546 50.9645 60.7118C47.7382 61.1473 48.5675 57.0485 48.6344 54.7549Z" fill="#FDFDFD"/>
<path d="M7.46278 58.5856C8.29631 58.5739 9.26971 58.4705 9.89964 59.0349C9.90619 59.892 9.11143 60.3695 9.09337 61.035C9.00662 64.2319 9.04114 67.445 9.03972 70.6449L9.03654 92.7684C9.03742 94.6638 9.21305 100.691 8.70652 102.173L8.21505 102.384C7.87406 102.327 7.71578 102.303 7.44631 102.066C6.53771 101.265 7.24377 76.5614 7.04247 73.3785C7.01503 72.9442 7.01715 72.5795 6.67262 72.2896C6.15618 72.4964 5.87698 72.705 5.48323 73.0996C4.71591 73.8687 4.99157 101.489 5.02291 104.616C5.03353 105.663 4.86356 107.643 5.70754 108.397C6.86436 109.429 9.20916 109.074 10.6666 109.041L39.4126 109.034C39.4272 109.729 39.4877 110.228 39.2898 110.889C38.3371 111.143 29.6679 111.021 28.1964 111.021C21.6146 111.022 14.9233 111.059 8.33667 111.01C7.40435 110.975 6.44016 110.822 5.5652 110.502C4.01747 109.937 3.15862 108.187 3.15543 106.623C3.13365 95.9624 3.09205 85.2986 3.16145 74.6385C3.18022 71.7528 4.58136 71.0347 7.023 70.1249C7.03185 67.9056 6.66129 59.9503 7.46278 58.5856Z" fill="#0089F1"/>
<path d="M45.2513 89.2059C46.8383 89.1629 46.6788 90.1724 49.7557 90.1526L50.6284 91.9546L50.9038 92.1024C53.19 93.3003 51.7074 93.9189 53.3998 96.8023C52.3572 98.4704 52.3859 98.5371 52.3753 100.524L50.6372 101.571C49.0565 104.472 50.8222 110.647 49.4361 111.672C48.303 111.601 46.9924 110.054 46.1289 109.207L45.9026 109.106C45.3956 109.206 42.3828 111.941 41.8405 112.412C41.6369 109.72 41.7479 105.854 41.7376 103.07L40.7591 101.465C40.2297 101.199 39.7103 100.904 39.1915 100.617C39.2082 98.5879 39.1809 98.4745 38.0845 96.7713C39.1653 95.0566 39.1547 94.9753 39.1595 92.9361C40.8421 91.9326 40.9007 91.8338 41.869 90.1213C43.6604 90.1398 43.8912 90.3128 45.2513 89.2059Z" fill="#0089F1"/>
<path d="M45.6379 90.4282C46.2709 90.6308 46.5033 91.0325 47.3562 91.1893C48.622 91.4365 50.89 92.9343 51.1166 94.2963C51.3259 95.5537 51.2758 95.6612 52.0004 96.7847C51.1405 98.2073 51.4608 98.1687 51.0223 99.5245C50.802 99.9057 48.9266 101.925 48.6298 101.982C47.199 102.254 47.3105 101.877 46.0497 102.814C45.4388 103.056 45.025 102.368 44.5082 102.189C43.7896 101.941 43.2648 102.391 42.5504 101.963C41.7111 100.091 40.629 100.659 40.3698 98.9893C40.2078 97.9445 40.1844 97.7549 39.5784 96.8355C39.9376 96.1996 40.251 95.6868 40.2669 94.9507C40.3039 93.2668 40.8855 93.5202 41.9743 92.6351C43.0012 90.0495 43.3048 92.2621 45.4634 90.5679L45.6379 90.4282Z" fill="#FDFDFD"/>
<path d="M44.8604 92.6555C46.3309 92.3229 47.8666 92.8066 48.8811 93.9218C49.8956 95.037 50.232 96.6116 49.7617 98.0441C49.2915 99.4766 48.0874 100.545 46.6094 100.843C44.362 101.294 42.1693 99.8548 41.6904 97.613C41.2115 95.3713 42.6247 93.1614 44.8604 92.6555Z" fill="#0089F1"/>
<path d="M44.7365 93.7666C46.3871 93.1836 48.1962 94.0589 48.7634 95.7148C49.3308 97.3707 48.4385 99.1714 46.7775 99.7233C45.1382 100.268 43.3665 99.3897 42.8065 97.7558C42.2467 96.1218 43.1079 94.3418 44.7365 93.7666Z" fill="#FDFDFD"/>
<path d="M43.0252 103.208C44.7514 103.414 44.8084 104.33 46.2901 104.088C47.1587 103.947 47.6093 103.374 48.4414 103.277C49.0124 103.882 48.816 108.622 48.7427 109.672L48.4802 109.793L48.0174 109.477C47.4144 108.846 46.5415 108.077 45.8827 107.467C44.8683 108.233 43.8168 109.263 42.8731 110.141C42.8599 108.83 42.7297 104.218 43.0252 103.208Z" fill="#FDFDFD"/>
<path d="M102.96 30.2088C106.395 29.7098 109.578 32.1071 110.046 35.5462C110.515 38.9855 108.091 42.1473 104.647 42.5862C101.247 43.0198 98.1318 40.6311 97.6686 37.2339C97.2053 33.837 99.5669 30.7015 102.96 30.2088Z" fill="#0089F1"/>
<path d="M103.332 32.5394C105.447 32.2542 107.4 33.7199 107.716 35.8308C108.033 37.9418 106.596 39.9158 104.49 40.2637C103.1 40.4933 101.693 39.9562 100.81 38.8581C99.927 37.7601 99.7036 36.2713 100.226 34.9624C100.748 33.6537 101.935 32.7276 103.332 32.5394Z" fill="#FDFDFD"/>
<path d="M18.4718 73.8814C21.9619 73.8786 50.0728 73.5914 50.891 74.1114C51.1243 74.2598 51.1197 74.4675 51.1943 74.7127C50.9459 75.2794 51.1429 75.0652 50.5477 75.3428L28.2732 75.3185C25.6132 75.3114 22.9558 75.3706 20.2967 75.3807C19.457 75.3838 18.6017 75.389 18.0352 74.7385C18.1062 74.1167 17.9983 74.408 18.4718 73.8814Z" fill="#0089F1"/>
<path d="M18.3562 83.2499L42.4711 83.2427C44.8168 83.2416 48.065 83.1819 50.4615 83.3071C50.7708 83.3232 50.9082 83.6042 51.0392 83.8067C50.9254 84.4356 51.0619 84.1624 50.5701 84.6302L30.026 84.6311C26.6457 84.636 23.259 84.7281 19.8811 84.6615C19.0369 84.6449 18.2213 84.6424 17.9871 83.7676L18.3562 83.2499Z" fill="#0089F1"/>
<path d="M18.2201 78.5766L40.7352 78.5893C42.4449 78.5958 50.1103 78.1957 50.9929 79.0172C51.1058 79.6411 51.1529 79.3432 50.7682 79.9262L29.5431 79.9495C27.7721 79.9522 18.6891 80.2222 17.9544 79.5901C17.8657 79.0542 17.9244 79.1776 18.2201 78.5766Z" fill="#0089F1"/>
<path d="M18.191 69.4102C21.661 69.4087 50.1009 69.2137 50.9589 69.5724C51.1926 70.0912 51.0977 69.9996 50.9856 70.6777C47.5026 70.6791 18.8812 70.9798 18.1608 70.4507C17.9503 69.813 17.9823 70.1471 18.191 69.4102Z" fill="#0089F1"/>
<path d="M18.2271 87.8596C20.8399 87.859 36.5004 87.4518 37.3684 88.1207C37.5279 88.7041 37.4672 88.5451 37.2602 89.2237C31.9338 89.2329 26.6072 89.2395 21.2813 89.2563C20.2564 89.2595 18.8604 89.4448 18.0493 88.8466C17.95 88.2154 17.9378 88.538 18.2271 87.8596Z" fill="#0089F1"/>
<path d="M22.1182 94.5142C22.4546 94.6409 22.5635 94.7086 22.8818 94.878C23.5089 95.9144 23.0413 97.1217 22.7835 98.3479C23.4037 97.8458 23.7815 97.389 24.6204 96.8395C25.9183 95.9893 26.2165 97.8299 26.9514 97.7086C27.7575 97.5755 29.7062 96.4679 30.6784 96.9165L30.7844 97.2683C30.2313 98.0473 27.0355 98.8631 26.1085 98.5193C25.7947 98.1935 25.62 97.9527 25.1999 97.7835L24.8222 97.9844C24.1137 98.5682 23.7244 98.9469 22.8204 98.9272C21.6411 98.1861 22.5017 96.7155 21.8753 95.8687C20.9368 96.2168 19.5427 98.8764 18.211 99.9523C18.1425 99.7912 18.0346 99.6388 18.0807 99.5169C18.9331 97.2637 19.8694 95.5632 22.1182 94.5142Z" fill="#0089F1"/>
<path d="M53.1889 108.688C53.6742 108.643 53.7374 108.572 54.1319 108.818L54.2043 109.245C53.9378 110.007 53.8666 110.09 53.3249 110.693C52.6472 110.907 52.8189 110.967 52.2775 110.773C51.7837 109.69 52.2959 109.179 53.1889 108.688Z" fill="#0089F1"/>
<path d="M93.1261 143.529H93.1789C93.3027 143.605 93.4196 143.69 93.5391 143.774L94.0678 144.142L94.3815 144.36C94.4394 144.4 94.5041 144.442 94.5574 144.488C94.581 144.508 94.5892 144.539 94.5895 144.57C94.591 144.717 94.5903 144.864 94.5903 145.011L94.59 145.849L94.5905 146.338C94.5906 146.422 94.5924 146.507 94.5878 146.591C94.5857 146.63 94.5596 146.67 94.524 146.686C94.503 146.695 94.4795 146.697 94.4567 146.697C94.2629 146.698 94.0688 146.697 93.875 146.697L92.7641 146.697L92.1367 146.697C92.033 146.697 91.9279 146.7 91.8247 146.696C91.7722 146.694 91.7317 146.659 91.7244 146.607C91.7148 146.541 91.7178 146.473 91.7178 146.407L91.7179 146.104L91.7173 145.084C91.8162 145.1 91.8488 145.098 91.9476 145.084C91.9416 145.229 91.9463 145.41 91.9463 145.557L91.9462 146.467L94.3603 146.467C94.3553 146.269 94.36 146.049 94.36 145.849L94.3599 144.625C94.0807 144.426 93.7916 144.234 93.5114 144.035C93.3961 143.953 93.2651 143.869 93.1533 143.785C93.0945 143.833 92.9766 143.909 92.9104 143.955L92.4619 144.267C92.3795 144.324 92.2805 144.39 92.2018 144.451C92.1421 144.367 92.1134 144.342 92.028 144.285C92.0796 144.259 92.2479 144.136 92.302 144.098L92.8234 143.735C92.914 143.672 93.0335 143.584 93.1261 143.529Z" fill="#0089F1"/>
<path d="M90.7575 147.185C90.8255 147.188 90.9043 147.186 90.9733 147.186L90.9732 147.81C90.9731 147.91 90.9711 148.011 90.976 148.111C90.9773 148.139 90.9998 148.146 91.0215 148.156L91.02 148.324C90.9298 148.334 90.8079 148.346 90.7958 148.222C90.7947 148.21 90.794 148.197 90.7937 148.185C90.6708 148.354 90.4618 148.388 90.2898 148.267C90.0982 148.132 90.0773 147.821 90.2119 147.641C90.337 147.471 90.5897 147.451 90.7306 147.613C90.745 147.609 90.7405 147.616 90.7523 147.606L90.7371 147.586C90.7471 147.457 90.7391 147.329 90.7467 147.201C90.7467 147.201 90.7567 147.186 90.7575 147.185Z" fill="#0089F1"/>
<path d="M90.5333 147.678C90.6558 147.669 90.7737 147.779 90.7645 147.903C90.7616 147.942 90.7637 147.99 90.7629 148.03C90.7196 148.107 90.6656 148.144 90.5804 148.161C90.4594 148.161 90.3728 148.094 90.346 147.975C90.3313 147.907 90.3441 147.836 90.3816 147.777C90.4186 147.72 90.469 147.692 90.5333 147.678Z" fill="#FDFDFD"/>
<path d="M91.5046 147.494C91.7382 147.468 91.9492 147.635 91.9758 147.869C92.0025 148.103 91.8347 148.314 91.6012 148.34C91.3677 148.367 91.1569 148.199 91.1302 147.966C91.1036 147.732 91.2712 147.521 91.5046 147.494Z" fill="#0089F1"/>
<path d="M91.5332 147.678C91.575 147.676 91.6166 147.685 91.6528 147.707C91.8278 147.809 91.8014 148.104 91.5782 148.159C91.2824 148.168 91.2532 147.734 91.5332 147.678Z" fill="#FDFDFD"/>
<path d="M95.5159 147.503C95.6065 147.491 95.7415 147.515 95.8149 147.574C95.9811 147.707 95.9064 147.948 95.9303 148.133C95.9429 148.14 95.9622 148.148 95.9757 148.154C95.9761 148.211 95.9755 148.267 95.9741 148.323C95.8482 148.34 95.7668 148.341 95.7477 148.196C95.7402 148.205 95.7324 148.214 95.7245 148.222C95.595 148.358 95.3733 148.382 95.2334 148.247C95.1789 148.183 95.1557 148.095 95.1807 148.015C95.2488 147.798 95.5462 147.802 95.7158 147.85C95.7165 147.805 95.717 147.752 95.6878 147.716C95.5871 147.588 95.3809 147.674 95.2785 147.745C95.2646 147.708 95.2306 147.641 95.2109 147.608C95.3094 147.541 95.3987 147.512 95.5159 147.503Z" fill="#0089F1"/>
<path d="M95.507 147.945C95.5897 147.936 95.6368 147.951 95.7159 147.97C95.7167 148.095 95.6992 148.139 95.5727 148.177C95.4644 148.202 95.3938 148.175 95.3655 148.063C95.3876 147.982 95.4292 147.963 95.507 147.945Z" fill="#0089F1"/>
<path d="M93.857 147.504C93.9315 147.497 94.0365 147.509 94.1044 147.543C94.2947 147.64 94.2634 147.826 94.2645 148.003C94.2648 148.047 94.2603 148.087 94.2747 148.129C94.2854 148.145 94.3015 148.149 94.3193 148.157C94.3145 148.197 94.316 148.279 94.3156 148.324C94.3005 148.326 94.2853 148.328 94.2701 148.329C94.1565 148.337 94.0979 148.318 94.0918 148.196C94.0884 148.2 94.0848 148.203 94.0813 148.207C93.948 148.351 93.7287 148.392 93.5774 148.25C93.5643 148.237 93.5559 148.225 93.5458 148.209C93.5121 148.154 93.5023 148.088 93.5189 148.026C93.5769 147.8 93.8804 147.803 94.059 147.851C94.0563 147.651 93.9336 147.625 93.7608 147.673C93.7121 147.687 93.6609 147.719 93.619 147.747C93.6083 147.715 93.5705 147.64 93.5547 147.606C93.6571 147.541 93.7373 147.514 93.857 147.504Z" fill="#0089F1"/>
<path d="M93.8522 147.945C93.9321 147.937 93.9807 147.951 94.0568 147.971C94.0579 148.002 94.0569 148.037 94.0568 148.069C94.0202 148.132 93.9832 148.156 93.913 148.178L93.9053 148.179C93.8272 148.196 93.7296 148.176 93.7121 148.086C93.7069 148.059 93.7125 148.032 93.7276 148.01C93.7566 147.968 93.8047 147.954 93.8522 147.945Z" fill="#0089F1"/>
<path d="M93.0282 147.502C93.194 147.487 93.3616 147.554 93.436 147.71C93.3695 147.728 93.2985 147.751 93.2322 147.772C93.2079 147.725 93.1434 147.681 93.0929 147.678C92.9394 147.664 92.8349 147.804 92.8568 147.95C92.8884 148.161 93.1047 148.239 93.2418 148.061C93.2623 148.069 93.285 148.075 93.3062 148.082L93.4439 148.125C93.3104 148.355 92.9922 148.408 92.7911 148.243C92.7075 148.173 92.6549 148.073 92.6448 147.965C92.6204 147.713 92.7774 147.525 93.0282 147.502Z" fill="#0089F1"/>
<path d="M94.7336 147.503C94.8684 147.487 94.979 147.535 95.0818 147.617C95.0516 147.655 95.0202 147.708 94.9957 147.75C94.9101 147.692 94.7669 147.605 94.6572 147.688C94.6245 147.712 94.6315 147.774 94.6711 147.795C94.7844 147.854 94.9299 147.86 95.0307 147.945C95.115 148.017 95.0988 148.176 95.0221 148.247C94.9404 148.325 94.8479 148.336 94.7408 148.337C94.5988 148.331 94.502 148.293 94.3943 148.203C94.4214 148.163 94.4494 148.108 94.473 148.065C94.4758 148.067 94.4788 148.07 94.4818 148.073C94.5605 148.139 94.6764 148.19 94.7808 148.179C94.8058 148.177 94.8535 148.165 94.8684 148.142C94.924 148.057 94.8269 148.025 94.7558 148.008C94.5453 147.957 94.3359 147.857 94.494 147.608C94.5359 147.542 94.6548 147.51 94.7336 147.503Z" fill="#0089F1"/>
<path d="M91.8043 144.355C91.977 144.341 92.129 144.468 92.1447 144.641C92.1604 144.813 92.0339 144.966 91.8615 144.983C91.6872 145 91.5323 144.872 91.5165 144.698C91.5006 144.524 91.6298 144.37 91.8043 144.355Z" fill="#0089F1"/>
<path d="M92.1497 147.25L92.3609 147.25L92.3602 147.513L92.5318 147.513L92.5313 147.673L92.3602 147.673C92.3615 147.772 92.3625 147.882 92.36 147.981C92.3557 148.146 92.3907 148.183 92.5535 148.113C92.5634 148.156 92.5741 148.199 92.5856 148.242C92.5893 148.258 92.5899 148.262 92.5903 148.279C92.5047 148.355 92.1921 148.372 92.1628 148.217C92.1474 148.136 92.1493 148.065 92.1495 147.983L92.1505 147.672C92.1179 147.674 92.0779 147.673 92.0448 147.673L92.0447 147.512L92.1503 147.515L92.1497 147.25Z" fill="#0089F1"/>
<path d="M169.022 130.368H169.053C169.126 130.413 169.195 130.463 169.265 130.512L169.576 130.729L169.761 130.857C169.795 130.881 169.833 130.905 169.864 130.932C169.878 130.944 169.883 130.963 169.883 130.981C169.884 131.067 169.884 131.154 169.884 131.24L169.884 131.733L169.884 132.021C169.884 132.07 169.885 132.121 169.882 132.17C169.881 132.193 169.866 132.216 169.845 132.226C169.832 132.231 169.819 132.232 169.805 132.232C169.691 132.233 169.577 132.232 169.463 132.232L168.809 132.232L168.44 132.232C168.379 132.232 168.317 132.234 168.256 132.232C168.225 132.23 168.202 132.21 168.197 132.18C168.192 132.141 168.193 132.1 168.193 132.061L168.193 131.883L168.193 131.283C168.251 131.293 168.271 131.291 168.329 131.283C168.325 131.368 168.328 131.475 168.328 131.561L168.328 132.097L169.748 132.097C169.745 131.98 169.748 131.851 169.748 131.733L169.748 131.013C169.584 130.896 169.414 130.783 169.249 130.666C169.181 130.618 169.104 130.568 169.038 130.518C169.004 130.547 168.934 130.592 168.895 130.619L168.631 130.802C168.583 130.836 168.525 130.875 168.478 130.91C168.443 130.861 168.426 130.846 168.376 130.813C168.406 130.797 168.505 130.725 168.537 130.703L168.844 130.489C168.897 130.452 168.968 130.4 169.022 130.368Z" fill="#0089F1"/>
<path d="M167.629 132.519C167.669 132.521 167.715 132.52 167.756 132.52L167.756 132.887C167.755 132.946 167.754 133.006 167.757 133.064C167.758 133.081 167.771 133.085 167.784 133.091L167.783 133.19C167.73 133.196 167.658 133.202 167.651 133.13C167.651 133.122 167.65 133.115 167.65 133.108C167.578 133.207 167.455 133.227 167.353 133.156C167.241 133.077 167.228 132.893 167.308 132.787C167.381 132.687 167.53 132.676 167.613 132.771C167.621 132.769 167.619 132.773 167.626 132.767L167.617 132.755C167.622 132.68 167.618 132.604 167.622 132.529C167.622 132.529 167.628 132.52 167.629 132.519Z" fill="#0089F1"/>
<path d="M167.497 132.81C167.57 132.804 167.64 132.87 167.634 132.943C167.633 132.966 167.634 132.994 167.633 133.018C167.608 133.064 167.576 133.086 167.525 133.096C167.454 133.096 167.402 133.056 167.387 132.985C167.378 132.945 167.385 132.903 167.408 132.868C167.43 132.835 167.459 132.818 167.497 132.81Z" fill="#FDFDFD"/>
<path d="M168.068 132.702C168.206 132.686 168.33 132.785 168.346 132.922C168.361 133.06 168.263 133.184 168.125 133.199C167.988 133.215 167.864 133.116 167.848 132.979C167.832 132.842 167.931 132.718 168.068 132.702Z" fill="#0089F1"/>
<path d="M168.086 132.81C168.111 132.808 168.135 132.814 168.157 132.827C168.26 132.887 168.245 133.062 168.112 133.095C167.937 133.1 167.92 132.843 168.086 132.81Z" fill="#FDFDFD"/>
<path d="M170.429 132.707C170.482 132.701 170.562 132.715 170.605 132.749C170.702 132.827 170.659 132.969 170.673 133.078C170.68 133.082 170.691 133.087 170.699 133.091C170.7 133.124 170.699 133.157 170.698 133.19C170.624 133.2 170.576 133.2 170.565 133.115C170.561 133.121 170.556 133.126 170.551 133.131C170.475 133.21 170.345 133.224 170.263 133.145C170.23 133.107 170.217 133.055 170.231 133.009C170.272 132.881 170.447 132.883 170.546 132.911C170.547 132.885 170.547 132.854 170.53 132.832C170.471 132.758 170.349 132.808 170.289 132.85C170.281 132.828 170.261 132.789 170.249 132.769C170.307 132.73 170.36 132.713 170.429 132.707Z" fill="#0089F1"/>
<path d="M170.424 132.967C170.473 132.962 170.501 132.971 170.548 132.982C170.548 133.056 170.538 133.082 170.463 133.105C170.399 133.12 170.357 133.104 170.34 133.037C170.353 132.989 170.378 132.978 170.424 132.967Z" fill="#0089F1"/>
<path d="M169.452 132.707C169.496 132.702 169.558 132.71 169.598 132.73C169.71 132.787 169.692 132.896 169.692 133C169.692 133.027 169.69 133.05 169.698 133.075C169.704 133.084 169.714 133.086 169.724 133.091C169.722 133.114 169.722 133.163 169.722 133.189C169.713 133.191 169.704 133.192 169.695 133.192C169.629 133.197 169.594 133.186 169.591 133.114C169.589 133.116 169.586 133.118 169.584 133.121C169.506 133.205 169.377 133.23 169.288 133.146C169.28 133.138 169.275 133.131 169.269 133.121C169.249 133.089 169.244 133.05 169.253 133.014C169.288 132.881 169.466 132.883 169.571 132.911C169.57 132.793 169.497 132.778 169.396 132.806C169.367 132.814 169.337 132.833 169.312 132.85C169.306 132.831 169.284 132.787 169.275 132.767C169.335 132.729 169.382 132.713 169.452 132.707Z" fill="#0089F1"/>
<path d="M169.45 132.967C169.498 132.962 169.526 132.971 169.571 132.983C169.572 133.001 169.572 133.022 169.571 133.041C169.55 133.078 169.528 133.093 169.486 133.105L169.482 133.106C169.436 133.116 169.378 133.104 169.367 133.051C169.364 133.035 169.368 133.019 169.376 133.006C169.394 132.981 169.422 132.973 169.45 132.967Z" fill="#0089F1"/>
<path d="M168.965 132.707C169.062 132.698 169.161 132.737 169.205 132.829C169.166 132.84 169.124 132.854 169.085 132.866C169.071 132.838 169.033 132.812 169.003 132.81C168.913 132.802 168.851 132.884 168.864 132.97C168.883 133.094 169.01 133.14 169.091 133.036C169.103 133.04 169.116 133.044 169.128 133.048L169.209 133.074C169.131 133.209 168.944 133.24 168.825 133.143C168.776 133.102 168.745 133.043 168.739 132.979C168.725 132.831 168.817 132.721 168.965 132.707Z" fill="#0089F1"/>
<path d="M169.968 132.706C170.048 132.696 170.113 132.724 170.173 132.772C170.155 132.795 170.137 132.826 170.122 132.851C170.072 132.816 169.988 132.766 169.923 132.814C169.904 132.829 169.908 132.865 169.931 132.877C169.998 132.912 170.084 132.915 170.143 132.966C170.193 133.008 170.183 133.102 170.138 133.143C170.09 133.189 170.035 133.196 169.972 133.196C169.889 133.193 169.832 133.17 169.769 133.117C169.785 133.094 169.801 133.061 169.815 133.036C169.817 133.037 169.818 133.039 169.82 133.041C169.866 133.08 169.935 133.11 169.996 133.103C170.011 133.102 170.039 133.095 170.048 133.081C170.08 133.032 170.023 133.013 169.981 133.003C169.857 132.973 169.734 132.914 169.827 132.767C169.852 132.729 169.922 132.71 169.968 132.706Z" fill="#0089F1"/>
<path d="M168.244 130.855C168.346 130.846 168.435 130.921 168.445 131.023C168.454 131.124 168.379 131.214 168.278 131.224C168.175 131.234 168.084 131.159 168.075 131.056C168.066 130.954 168.142 130.863 168.244 130.855Z" fill="#0089F1"/>
<path d="M168.448 132.557L168.572 132.558L168.572 132.712L168.673 132.712L168.672 132.806L168.572 132.806C168.572 132.865 168.573 132.929 168.572 132.988C168.569 133.085 168.59 133.106 168.685 133.065C168.691 133.091 168.698 133.116 168.704 133.141C168.706 133.151 168.707 133.153 168.707 133.163C168.657 133.208 168.473 133.218 168.455 133.127C168.446 133.079 168.448 133.037 168.448 132.989L168.448 132.806C168.429 132.807 168.406 132.806 168.386 132.806L168.386 132.711L168.448 132.713L168.448 132.557Z" fill="#0089F1"/>
</svg>
